<?xml version="1.0" encoding="utf-8"?>
<!-- Generator: Adobe Illustrator 22.1.0, SVG Export Plug-In . SVG Version: 6.00 Build 0)  -->
<svg version="1.1" id="Layer_1" xmlns="http://www.w3.org/2000/svg" xmlns:xlink="http://www.w3.org/1999/xlink" x="0px" y="0px"
	 viewBox="0 0 129.7 188" style="enable-background:new 0 0 129.7 188;" xml:space="preserve">
<style type="text/css">
	.st0{fill:url(#SVGID_1_);}
	.st1{fill:#457FC1;}
	.st2{fill:#00539B;}
	.st3{fill:url(#SVGID_2_);}
	.st4{fill:none;stroke:#221F1F;stroke-width:0.144;}
	.st5{opacity:0.75;fill:#1B4822;enable-background:new    ;}
	.st6{fill:#1B4822;}
	.st7{fill:url(#SVGID_3_);}
	.st8{opacity:0.75;fill:#143E71;enable-background:new    ;}
	.st9{fill:#143E71;}
	.st10{fill:url(#SVGID_4_);}
	.st11{fill:url(#SVGID_5_);}
	.st12{fill:#757575;}
	.st13{fill:#424242;}
	.st14{fill:url(#SVGID_6_);}
	.st15{fill:none;stroke:#202020;stroke-width:0.144;}
	.st16{opacity:0.75;fill:#363636;enable-background:new    ;}
	.st17{fill:#363636;}
	.st18{fill:url(#SVGID_7_);}
	.st19{opacity:0.75;fill:#373737;enable-background:new    ;}
	.st20{fill:#373737;}
	.st21{fill:url(#SVGID_8_);}
	.st22{fill:url(#SVGID_9_);}
	.st23{fill:#FFFFFF;}
	.st24{fill:url(#SVGID_10_);}
	.st25{fill:url(#SVGID_11_);}
	.st26{fill:url(#SVGID_12_);}
</style>
<g id="LogoMark">
	
		<linearGradient id="SVGID_1_" gradientUnits="userSpaceOnUse" x1="34.4285" y1="177.1315" x2="3.0946" y2="177.1315" gradientTransform="matrix(1 0 0 -1 0 190)">
		<stop  offset="9.852217e-03" style="stop-color:#457FC1"/>
		<stop  offset="0.5093" style="stop-color:#087AC0"/>
		<stop  offset="0.7117" style="stop-color:#14609B"/>
		<stop  offset="0.8988" style="stop-color:#164D85"/>
		<stop  offset="1" style="stop-color:#18467E"/>
	</linearGradient>
	<path class="st0" d="M49,6.3c-2.9-1.5-6.3-2.8-10-3.7C23.5-1.3,7.7,2.2,3.9,10.5c-2.2,4.7,0,9.9,5.1,14.3c-0.3-2.5,0.1-5,1.2-7.4
		C14.9,7,31.5,3.2,47.1,7.1C47.2,7.2,49,6.3,49,6.3z"/>
	<g>
		<path class="st1" d="M63.7,50.5C63.4,50,62.9,50,62.4,50c-0.5,0-1.3,0.2-1.3,0.9c0,0.6,0.6,0.7,1.3,0.8c0.8,0.2,1.7,0.3,1.7,1.3
			c0,1-1,1.2-1.7,1.2c-0.7,0-1.4-0.3-1.8-1l0.3-0.2c0.3,0.5,1,0.8,1.5,0.8s1.4-0.2,1.4-0.9c0-0.6-0.7-0.8-1.4-0.9
			c-0.8-0.2-1.6-0.3-1.6-1.1c0-0.9,1-1.2,1.7-1.2c0.6,0,1.2,0.1,1.6,0.7L63.7,50.5z"/>
		<path class="st1" d="M65.1,49.7v1.9c0.3-0.5,0.7-0.6,1.1-0.6c0.9,0,1.3,0.6,1.3,1.4v1.8h-0.3v-1.8c0-0.6-0.3-1.1-1-1.1
			c-0.6,0-1.1,0.5-1.1,1.1v1.7h-0.3v-4.4L65.1,49.7L65.1,49.7z"/>
		<path class="st1" d="M71.3,51c0,1,0,2.1,0,3.1H71v-0.6c-0.3,0.5-0.8,0.7-1.3,0.7c-0.9,0-1.6-0.6-1.6-1.6s0.7-1.6,1.6-1.6
			c0.5,0,1,0.2,1.3,0.7V51L71.3,51L71.3,51z M68.4,52.5c0,0.8,0.6,1.3,1.3,1.3c1.7,0,1.7-2.6,0-2.6C69,51.2,68.4,51.7,68.4,52.5z"/>
		<path class="st1" d="M72.1,55.4V51h0.3v0.7c0.2-0.5,0.7-0.8,1.3-0.8c0.8,0,1.5,0.6,1.5,1.6c0,1-0.7,1.6-1.6,1.6
			c-0.5,0-1-0.3-1.3-0.8v2L72.1,55.4L72.1,55.4z M74.9,52.5c0-0.9-0.6-1.3-1.3-1.3c-0.7,0-1.3,0.5-1.3,1.3s0.5,1.3,1.3,1.3
			C74.3,53.8,74.9,53.4,74.9,52.5z"/>
		<path class="st1" d="M75.8,52.5c0-0.9,0.7-1.6,1.6-1.6c0.9,0,1.6,0.5,1.5,1.7h-2.7c0.1,0.7,0.6,1.1,1.3,1.1c0.4,0,0.9-0.2,1.1-0.5
			l0.2,0.2c-0.3,0.4-0.8,0.6-1.3,0.6C76.5,54.1,75.8,53.5,75.8,52.5z M78.6,52.4c0-0.8-0.5-1.2-1.3-1.2c-0.6,0-1.2,0.4-1.3,1.2H78.6
			z"/>
		<path class="st1" d="M84.9,54.1L84.5,53h-2.6l-0.5,1.1H81l2-4.4h0.4l2,4.4H84.9z M84.3,52.7L83.2,50L82,52.7H84.3z"/>
		<path class="st1" d="M86,51v0.5c0.2-0.4,0.7-0.6,1.1-0.6c0.8,0,1.4,0.5,1.4,1.4V54h-0.3v-1.8c0-0.7-0.4-1.1-1.1-1.1
			c-0.6,0-1.1,0.5-1.1,1.1V54h-0.3v-3.1L86,51L86,51z"/>
		<path class="st1" d="M92.3,51c0,1,0,2.1,0,3.1H92v-0.6c-0.3,0.5-0.8,0.7-1.3,0.7c-0.9,0-1.6-0.6-1.6-1.6s0.7-1.6,1.6-1.6
			c0.5,0,1,0.2,1.3,0.7V51L92.3,51L92.3,51z M89.5,52.5c0,0.8,0.6,1.3,1.3,1.3c1.7,0,1.7-2.6,0-2.6C90,51.2,89.5,51.7,89.5,52.5z"/>
		<path class="st1" d="M93.5,49.7v4H96v0.3h-2.8v-4.4H93.5z"/>
		<path class="st1" d="M98.9,51L97,55.3h-0.3l0.6-1.3l-1.2-3h0.3l0.7,1.8l0.4,0.9l0.3-0.9l0.8-1.8L98.9,51L98.9,51z"/>
		<path class="st1" d="M101.7,51.5c-0.3-0.3-0.6-0.3-1-0.3c-0.5,0-1,0.2-0.9,0.6c0,0.4,0.5,0.5,0.9,0.6c0.5,0.1,1.3,0.2,1.3,0.9
			c0,0.7-0.7,0.9-1.3,0.9c-0.5,0-1.1-0.2-1.3-0.6l0.2-0.2c0.3,0.4,0.7,0.5,1.1,0.5c0.4,0,1-0.1,1-0.6c0-0.5-0.5-0.5-1-0.6
			c-0.6-0.1-1.2-0.2-1.2-0.8c0-0.6,0.6-0.9,1.2-0.9c0.5,0,0.8,0.1,1.1,0.4L101.7,51.5z"/>
		<path class="st1" d="M103.1,50c0,0.3-0.5,0.3-0.5,0S103.1,49.7,103.1,50z M102.6,51v3.1h0.3V51H102.6z"/>
		<path class="st1" d="M105.9,51.5c-0.3-0.3-0.6-0.3-1-0.3c-0.5,0-1,0.2-0.9,0.6c0,0.4,0.5,0.5,0.9,0.6c0.5,0.1,1.3,0.2,1.3,0.9
			c0,0.7-0.7,0.9-1.3,0.9c-0.5,0-1.1-0.2-1.3-0.6l0.2-0.2c0.3,0.4,0.7,0.5,1.1,0.5c0.4,0,1-0.1,1-0.6c0-0.5-0.5-0.5-1-0.6
			c-0.6-0.1-1.2-0.2-1.2-0.8c0-0.6,0.6-0.9,1.2-0.9c0.5,0,0.8,0.1,1.1,0.4L105.9,51.5z"/>
		<path class="st1" d="M109.9,50h-1.6v-0.3h3.5V50h-1.6v4.1h-0.3L109.9,50L109.9,50z"/>
		<path class="st1" d="M111.5,52.5c0-1,0.7-1.6,1.6-1.6s1.6,0.6,1.6,1.6s-0.7,1.6-1.6,1.6S111.5,53.5,111.5,52.5z M114.3,52.5
			c0-0.8-0.6-1.3-1.3-1.3c-0.7,0-1.3,0.5-1.3,1.3s0.6,1.3,1.3,1.3C113.7,53.8,114.3,53.3,114.3,52.5z"/>
		<path class="st1" d="M115.2,52.5c0-1,0.7-1.6,1.6-1.6s1.6,0.6,1.6,1.6s-0.7,1.6-1.6,1.6C115.9,54.1,115.2,53.5,115.2,52.5z
			 M118,52.5c0-0.8-0.6-1.3-1.3-1.3c-0.7,0-1.3,0.5-1.3,1.3s0.6,1.3,1.3,1.3S118,53.3,118,52.5z"/>
		<path class="st1" d="M119.3,49.7v4.4H119v-4.4H119.3z"/>
		<path class="st1" d="M120.5,49.7v2c0.3-0.5,0.8-0.7,1.3-0.7c0.9,0,1.6,0.6,1.6,1.6c0,1-0.7,1.6-1.5,1.6c-0.5,0-1-0.3-1.3-0.7v0.7
			h-0.3v-4.4L120.5,49.7L120.5,49.7z M120.5,52.5c0,0.8,0.5,1.3,1.3,1.3c0.7,0,1.3-0.4,1.3-1.3s-0.6-1.3-1.3-1.3
			C121,51.2,120.5,51.7,120.5,52.5z"/>
		<path class="st1" d="M123.9,52.5c0-1,0.7-1.6,1.6-1.6s1.6,0.6,1.6,1.6s-0.7,1.6-1.6,1.6C124.6,54.1,123.9,53.5,123.9,52.5z
			 M126.7,52.5c0-0.8-0.6-1.3-1.3-1.3c-0.7,0-1.3,0.5-1.3,1.3s0.6,1.3,1.3,1.3C126.1,53.8,126.7,53.3,126.7,52.5z"/>
		<path class="st1" d="M128.8,52.2l0.9-1.3h0.4v0l-1.1,1.5l1.2,1.6v0h-0.4l-1-1.4l-1,1.4h-0.4v0l1.2-1.6l-1.1-1.5v0h0.4L128.8,52.2z
			"/>
	</g>
	<g>
		<path class="st2" d="M72.8,31c-0.7-1.1-2.5-2.2-4.7-2.2c-2.8,0-4.1,1.2-4.1,2.6c0,1.7,2,2.2,4.4,2.5c4.1,0.5,8,1.6,8,6.3
			c0,4.4-3.9,6.3-8.3,6.3c-4,0-7.1-1.3-8.6-4.9l3.1-1.6c0.9,2.2,3.2,3.1,5.6,3.1c2.3,0,4.5-0.8,4.5-3c0-1.9-1.9-2.6-4.6-2.9
			c-4-0.5-7.8-1.6-7.8-6c0-4.1,4-5.7,7.6-5.8c3.1,0,6.3,0.9,7.8,3.9L72.8,31z"/>
		<path class="st2" d="M93.3,42.3H83L81.3,46h-4l8.9-19.8h4L99,46H95L93.3,42.3z M88.1,30.4l-3.7,8.4h7.3L88.1,30.4z"/>
		<path class="st2" d="M104.7,26.2v16.3h10.2V46H101V26.2H104.7z"/>
		<path class="st2" d="M119.7,29.6h-6.3v-3.4c5.7,0,10.5,0,16.3,0v3.4h-6.3V46h-3.7V29.6z"/>
	</g>
	
		<linearGradient id="SVGID_2_" gradientUnits="userSpaceOnUse" x1="-240.4433" y1="-311.6566" x2="-271.7772" y2="-311.6566" gradientTransform="matrix(-1 0 0 1 -223.9278 358.384)">
		<stop  offset="9.852217e-03" style="stop-color:#7FC78C"/>
		<stop  offset="0.5093" style="stop-color:#3EB54A"/>
		<stop  offset="0.5874" style="stop-color:#399B42"/>
		<stop  offset="0.7793" style="stop-color:#2A6B32"/>
		<stop  offset="0.9225" style="stop-color:#1F5127"/>
		<stop  offset="1" style="stop-color:#1B4822"/>
	</linearGradient>
	<path class="st3" d="M1.9,53.2c2.9,1.5,6.3,2.8,10,3.7c15.6,4,31.3,0.5,35.1-7.8c2.2-4.7,0-9.9-5.1-14.3c0.3,2.5-0.1,5-1.2,7.4
		C36,52.6,19.4,56.4,3.8,52.5C3.8,52.4,1.9,53.2,1.9,53.2z"/>
	<g>
		<path class="st2" d="M69.9,10c-0.5-0.9-2-1.7-3.6-1.7c-2.1,0-3.2,0.9-3.2,2.1c0,1.4,1.6,1.7,3.4,1.9c3.2,0.4,6.2,1.2,6.2,4.9
			c0,3.5-3,4.9-6.4,4.9c-3.1,0-5.6-1-6.7-3.8l2.4-1.3c0.7,1.7,2.5,2.5,4.3,2.5c1.8,0,3.5-0.6,3.5-2.3c0-1.5-1.5-2.1-3.5-2.3
			c-3.1-0.4-6-1.2-6-4.7c0-3.2,3.1-4.5,5.9-4.5c2.4,0,4.9,0.7,6,3.1L69.9,10z"/>
		<path class="st2" d="M77.7,6.3v15.5H75V6.3H77.7z"/>
		<path class="st2" d="M82.9,7.7c0,2.1-3.2,2.1-3.2,0S82.9,5.6,82.9,7.7z M80,10.8v11h2.7v-11H80z"/>
		<path class="st2" d="M94.3,20.3c-1.3,1.2-2.6,1.7-4.2,1.7c-3.1,0-5.7-1.9-5.7-5.8s2.6-5.8,5.7-5.8c1.5,0,2.7,0.4,3.9,1.6l-1.7,1.8
			c-0.6-0.6-1.4-0.9-2.2-0.9c-1.8,0-3.1,1.3-3.1,3.2c0,2.1,1.4,3.2,3.1,3.2c0.9,0,1.7-0.2,2.4-0.9L94.3,20.3z"/>
		<path class="st2" d="M98.2,17.2c0.2,1.4,1.3,2.3,3.2,2.3c1,0,2.3-0.4,2.9-1l1.7,1.7c-1.1,1.2-3,1.8-4.6,1.8
			c-3.7,0-5.9-2.3-5.9-5.8c0-3.3,2.2-5.7,5.7-5.7c3.6,0,5.9,2.3,5.5,6.8L98.2,17.2L98.2,17.2z M104.1,15c-0.2-1.4-1.3-2.1-2.8-2.1
			c-1.4,0-2.6,0.7-3,2.1H104.1z"/>
		<path class="st2" d="M111.2,10.8l0.2,1.3c0.8-1.4,1.9-1.6,3-1.6c1.1,0,2.2,0.5,2.8,1l-1.2,2.4c-0.5-0.5-1.1-0.7-1.9-0.7
			c-1.4,0-2.7,0.8-2.7,2.8v5.7h-2.7V10.8H111.2z"/>
	</g>
	<path class="st4" d="M38.7,62"/>
	<path class="st5" d="M2.4,53.5c0.2-0.1,0.4-0.1,0.6-0.2c0.2,0.1,0.4,0.2,0.7,0.3c-0.2,0.1-0.4,0.2-0.6,0.3c0,0,0,0,0,0
		c0.2-0.1,0.4-0.2,0.6-0.3c0.2,0.1,0.5,0.2,0.8,0.3c-0.2,0.1-0.5,0.2-0.7,0.3c0,0,0,0,0,0c0.2-0.1,0.5-0.2,0.7-0.3
		c0.3,0.1,0.5,0.2,0.8,0.3c-0.2,0.1-0.5,0.2-0.8,0.3c0,0,0,0,0,0c0.3-0.1,0.5-0.2,0.8-0.3c0.3,0.1,0.6,0.2,0.9,0.3
		c-0.3,0.1-0.6,0.2-0.9,0.4c0,0,0,0,0,0c0.3-0.1,0.6-0.2,0.9-0.4c0.4,0.1,0.8,0.3,1.2,0.4c-0.3,0.2-0.6,0.3-0.9,0.4c0,0,0,0,0,0
		c0.3-0.2,0.6-0.3,0.9-0.4c0.4,0.1,0.8,0.2,1.3,0.4c-0.3,0.2-0.6,0.3-0.9,0.5c0,0,0,0,0,0c0.3-0.2,0.6-0.3,0.9-0.5
		c0.4,0.1,0.9,0.2,1.4,0.4c-0.3,0.2-0.5,0.4-0.8,0.6c0,0,0,0,0,0c0.3-0.2,0.6-0.4,0.8-0.6c0.5,0.1,1,0.3,1.5,0.4
		c-0.2,0.2-0.5,0.5-0.8,0.7c0,0,0,0,0,0c0.3-0.2,0.6-0.5,0.8-0.7c0.5,0.1,0.9,0.2,1.4,0.3c0.1,0,0.2,0,0.3,0.1
		c-0.2,0.3-0.4,0.5-0.6,0.8c0,0,0,0,0,0c0.2-0.3,0.4-0.5,0.6-0.8c0.5,0.1,1.1,0.2,1.6,0.3c-0.2,0.3-0.3,0.6-0.5,0.9h0
		c0.2-0.3,0.3-0.6,0.5-0.9c0.6,0.1,1.2,0.2,1.8,0.3c-0.1,0.3-0.2,0.6-0.4,0.9h0c0.2-0.3,0.3-0.6,0.4-0.9c0.6,0.1,1.2,0.2,1.8,0.2
		c-0.1,0.3-0.2,0.6-0.3,1h0c0.1-0.3,0.2-0.7,0.3-1c0.6,0.1,1.3,0.1,1.9,0.2c-0.1,0.3-0.2,0.7-0.3,1h0c0.1-0.4,0.2-0.7,0.3-1
		c0.7,0,1.4,0.1,2.1,0.1c0,0.3-0.1,0.7-0.2,1.1h0c0.1-0.4,0.1-0.8,0.2-1.1c0.1,0,0.2,0,0.4,0c0.2,0,0.3,0,0.4,0c0.4,0,0.8,0,1.2,0
		c0,0.4,0,0.8-0.1,1.2h0c0-0.4,0.1-0.8,0.1-1.2c0.6,0,1.3-0.1,1.9-0.1c0,0.4,0,0.8-0.1,1.2h0c0-0.4,0.1-0.8,0.1-1.2
		c0.7-0.1,1.4-0.2,2-0.3c0,0.4,0,0.9-0.1,1.3h0c0-0.5,0.1-0.9,0.1-1.3c0.7-0.1,1.4-0.3,2.1-0.4c0,0.5,0,0.9-0.1,1.4h0
		c0-0.5,0.1-1,0.1-1.4c0.8-0.2,1.6-0.4,2.3-0.6c0,0.5-0.1,1-0.2,1.6h0c0.1-0.6,0.1-1.1,0.2-1.6c0.5-0.2,0.9-0.3,1.3-0.5
		c0.4-0.2,0.8-0.3,1.2-0.5c0,0.6-0.1,1.3-0.1,2h0c0.1-0.7,0.1-1.4,0.1-2c0.9-0.4,1.7-0.9,2.6-1.4c0,0.7,0,1.5-0.2,2.4h0
		c0.1-0.9,0.2-1.7,0.2-2.5c0.9-0.5,1.7-1.1,2.5-1.8c0.1,0.9,0.1,1.8,0,2.9h0c0.1-1.1,0.1-2,0-2.9c0.9-0.7,1.7-1.6,2.5-2.4
		c0.1,1,0.1,2.2-0.1,3.5h0c0.2-1.2,0.3-2.4,0.1-3.5c0.7-0.8,1.3-1.6,1.9-2.5c0.2,0.9,0.2,1.8,0.2,2.7h0c0.1-1,0-1.9-0.2-2.7
		c0.7-1.1,1.4-2.2,2-3.5c0,0,0,0,0,0c-0.6,1.2-1.3,2.4-2,3.5c-0.2-1-0.5-2-0.8-2.8c0.6-1.2,1.2-2.4,1.6-3.7c0,0,0,0,0,0
		c-0.5,1.3-1,2.6-1.6,3.7c-0.3-0.6-0.5-1.2-0.8-1.6c-0.2-0.3-0.4-0.6-0.5-0.9c0.5-1.2,0.9-2.4,1.2-3.7l0,0c-0.3,1.3-0.7,2.6-1.2,3.7
		c-0.8-1.3-1.6-2.1-1.6-2.1h0v0c0.1,0.1,0.8,0.9,1.6,2.1c-0.5,1.1-1,2.2-1.6,3.2c-0.7-1-1.3-1.5-1.3-1.5v0c0,0,0,0,0,0
		c0,0,0.6,0.5,1.3,1.5c-0.6,0.9-1.2,1.8-1.9,2.6c-0.5-1.1-1-1.7-1-1.7l0,0c0,0,0.5,0.6,1,1.7c-0.6,0.7-1.3,1.4-2,2
		c-0.5-1.2-1-1.7-1-1.7l0,0l0,0c0,0,0.5,0.5,1,1.7c-0.7,0.6-1.5,1.2-2.3,1.7c0,0,0,0,0,0c-0.3-1.2-0.8-1.7-0.8-1.8l0,0l0,0
		c0,0,0.4,0.5,0.8,1.8c0,0,0,0,0,0.1c-0.3,0.2-0.5,0.3-0.8,0.5c-0.5,0.3-1,0.6-1.6,0.8c0,0,0,0,0-0.1c-0.3-1.2-0.6-1.8-0.6-1.8l0,0
		c0,0,0.4,0.6,0.6,1.8c-0.7,0.3-1.5,0.6-2.2,0.9c-0.2-1.3-0.5-1.8-0.5-1.8l0,0l0,0c0,0,0.3,0.5,0.5,1.8c-0.7,0.3-1.4,0.5-2.2,0.6
		c-0.2-1.1-0.4-1.7-0.4-1.7l0,0c0,0,0.2,0.6,0.4,1.7c-0.7,0.2-1.3,0.3-2,0.5c-0.2-1-0.4-1.5-0.4-1.5h0l0,0c0,0,0.2,0.5,0.4,1.5
		c-0.6,0.1-1.3,0.2-1.9,0.3c-0.1-0.7-0.3-1.2-0.4-1.4h0c0.1,0.2,0.2,0.7,0.4,1.4c-0.6,0.1-1.2,0.2-1.8,0.2c-0.1-0.6-0.2-1.1-0.2-1.3
		h0c0.1,0.2,0.2,0.6,0.2,1.3c-0.6,0-1.2,0.1-1.8,0.1c0-0.5,0-0.9-0.1-1.2h0c0,0.3,0.1,0.7,0.1,1.2c-0.6,0-1.2,0-1.7,0
		c0-0.4,0-0.8,0-1.1h0c0,0.3,0,0.6,0,1.1c-0.6,0-1.1,0-1.6,0c0.1-0.4,0.1-0.7,0.1-1h0c0,0.3-0.1,0.6-0.1,1c-0.5,0-1,0-1.6-0.1
		c0.1-0.3,0.2-0.6,0.3-0.8h0c-0.1,0.2-0.2,0.5-0.3,0.8c-0.5,0-1-0.1-1.4-0.1c0.1-0.3,0.2-0.5,0.3-0.7c0,0,0,0,0,0
		c-0.1,0.2-0.2,0.5-0.3,0.7c0,0-0.1,0-0.1,0c-0.4,0-0.8-0.1-1.2-0.1c0.2-0.2,0.3-0.5,0.5-0.6c0,0,0,0,0,0c-0.1,0.2-0.3,0.4-0.5,0.6
		c-0.5-0.1-1-0.1-1.4-0.2c0.2-0.2,0.3-0.4,0.5-0.5c0,0,0,0,0,0c-0.1,0.2-0.3,0.3-0.5,0.5c-0.4-0.1-0.8-0.1-1.2-0.2
		c0.2-0.2,0.3-0.3,0.5-0.5c0,0,0,0,0,0c-0.2,0.1-0.3,0.3-0.5,0.5C10,54.1,9.6,54,9.2,53.9c0.2-0.1,0.3-0.3,0.5-0.4c0,0,0,0,0,0
		c-0.2,0.1-0.3,0.2-0.5,0.4c-0.4-0.1-0.8-0.2-1.2-0.2c0.2-0.1,0.3-0.2,0.5-0.3c0,0,0,0,0,0c-0.2,0.1-0.3,0.2-0.5,0.3
		c-0.3-0.1-0.7-0.2-1-0.2c0.2-0.1,0.3-0.2,0.4-0.3c0,0,0,0,0,0c-0.1,0.1-0.3,0.2-0.4,0.3c-0.3-0.1-0.6-0.2-0.9-0.2
		C6,53.2,6.2,53.1,6.3,53c0,0,0,0,0,0c-0.1,0.1-0.2,0.2-0.4,0.2C5.5,53.2,5.2,53.1,5,53c0.1-0.1,0.2-0.1,0.3-0.2c0,0,0,0,0,0
		C5.1,52.9,5,52.9,4.9,53c-0.3-0.1-0.5-0.1-0.7-0.2c0.1-0.1,0.2-0.1,0.3-0.2c0,0,0,0,0,0c-0.1,0.1-0.2,0.1-0.3,0.2
		c-0.3-0.1-0.6-0.2-0.7-0.2c0,0,0,0,0,0c0.1,0,0.3,0.1,0.7,0.2C4,52.9,3.8,53,3.6,53.1C3.2,53,3,52.9,2.9,52.8c0,0,0,0,0,0
		c0.1,0,0.3,0.1,0.6,0.2c-0.2,0.1-0.3,0.1-0.5,0.2c-0.3-0.1-0.5-0.2-0.6-0.2h0v0c0,0,0.2,0.1,0.6,0.2C2.8,53.4,2.7,53.4,2.4,53.5
		C2.4,53.5,2.4,53.5,2.4,53.5z M4.6,53.8c-0.3-0.1-0.5-0.2-0.8-0.3c0.2-0.1,0.3-0.2,0.5-0.2c0.3,0.1,0.5,0.2,0.8,0.3
		C5,53.7,4.8,53.8,4.6,53.8z M5.4,54.1c-0.3-0.1-0.6-0.2-0.8-0.3c0.2-0.1,0.4-0.2,0.6-0.3c0.3,0.1,0.6,0.2,0.9,0.3
		C5.9,53.9,5.7,54,5.4,54.1z M6.3,54.5c-0.3-0.1-0.6-0.2-0.9-0.3c0.2-0.1,0.4-0.2,0.6-0.3c0.3,0.1,0.6,0.2,1,0.3
		C6.8,54.2,6.6,54.3,6.3,54.5z M7.6,54.9c-0.4-0.1-0.8-0.3-1.2-0.4c0.3-0.1,0.5-0.2,0.7-0.3c0.4,0.1,0.8,0.2,1.2,0.3
		C8.1,54.6,7.9,54.7,7.6,54.9z M8.9,55.2C8.4,55.1,8,55,7.6,54.9c0.3-0.2,0.5-0.3,0.7-0.4c0.4,0.1,0.8,0.2,1.3,0.3
		C9.4,54.9,9.2,55.1,8.9,55.2z M10.3,55.6c-0.5-0.1-0.9-0.2-1.3-0.4c0.3-0.2,0.5-0.3,0.7-0.5c0.4,0.1,0.9,0.2,1.3,0.3
		C10.8,55.2,10.5,55.4,10.3,55.6z M11.8,56c-0.5-0.1-1-0.2-1.5-0.4c0.3-0.2,0.5-0.4,0.7-0.6c0.5,0.1,1,0.2,1.5,0.3
		C12.3,55.5,12.1,55.7,11.8,56z M13.6,56.4c-0.1,0-0.2,0-0.3-0.1c-0.5-0.1-0.9-0.2-1.4-0.3c0.3-0.2,0.5-0.5,0.7-0.7
		c0.5,0.1,1,0.2,1.5,0.2C13.9,55.8,13.8,56.1,13.6,56.4z M15.2,56.7c-0.5-0.1-1.1-0.2-1.6-0.3c0.2-0.3,0.4-0.6,0.5-0.8
		c0,0,0.1,0,0.1,0c0.5,0.1,1,0.1,1.4,0.2C15.5,56,15.3,56.3,15.2,56.7z M17,57c-0.6-0.1-1.2-0.2-1.8-0.3c0.2-0.3,0.3-0.6,0.5-0.9
		c0.6,0.1,1.1,0.1,1.7,0.2C17.2,56.2,17.1,56.6,17,57z M18.8,57.1c-0.6-0.1-1.2-0.1-1.8-0.2c0.1-0.4,0.2-0.7,0.3-1
		c0.6,0,1.1,0.1,1.7,0.1C19,56.4,18.9,56.8,18.8,57.1z M20.7,57.3c-0.6,0-1.3-0.1-1.9-0.2c0.1-0.4,0.2-0.8,0.3-1.1
		c0.6,0,1.2,0,1.8,0.1C20.9,56.5,20.8,56.9,20.7,57.3z M22.9,57.4c-0.7,0-1.4,0-2.1-0.1c0.1-0.4,0.2-0.8,0.2-1.2c0.1,0,0.3,0,0.4,0
		c0.5,0,1,0,1.5,0C22.9,56.5,22.9,56.9,22.9,57.4z M24.9,57.3c-0.7,0-1.4,0-2,0c0-0.5,0.1-0.9,0.1-1.3c0.6,0,1.3-0.1,1.9-0.1l0,0
		C24.9,56.4,24.9,56.8,24.9,57.3z M26.9,57.2c-0.6,0.1-1.3,0.1-1.9,0.1c0-0.5,0-1,0-1.4c0.6-0.1,1.3-0.1,1.9-0.2
		C26.9,56.2,26.9,56.7,26.9,57.2z M28.9,57c-0.7,0.1-1.3,0.2-2,0.3c0-0.5,0-1,0-1.5c0.7-0.1,1.4-0.2,2-0.3
		C28.9,55.9,28.9,56.4,28.9,57z M31.1,56.5c-0.7,0.2-1.4,0.3-2.1,0.4c0-0.6,0-1.1,0-1.6c0.7-0.2,1.4-0.3,2.1-0.5
		C31.1,55.3,31.1,55.9,31.1,56.5z M33.4,55.9c-0.8,0.3-1.6,0.5-2.3,0.6c0-0.6,0-1.2,0-1.7c0.8-0.2,1.6-0.5,2.3-0.8
		C33.4,54.6,33.5,55.2,33.4,55.9z M36,54.9c-0.4,0.2-0.8,0.4-1.3,0.5c-0.4,0.2-0.9,0.3-1.3,0.5c0-0.7,0-1.3,0-1.8
		c0.8-0.3,1.6-0.7,2.3-1c0.1,0,0.2-0.1,0.2-0.1C36,53.4,36,54.1,36,54.9z M36,54.8c0-0.8,0-1.4-0.1-2c0.9-0.5,1.7-1,2.5-1.6
		c0.1,0.6,0.2,1.4,0.2,2.2C37.8,54,36.9,54.4,36,54.8z M38.6,53.5c0-0.8-0.1-1.6-0.2-2.2c0.8-0.6,1.5-1.2,2.2-1.9
		c0.2,0.7,0.3,1.4,0.4,2.3C40.3,52.3,39.5,52.9,38.6,53.5z M41.1,51.6c-0.1-0.9-0.2-1.6-0.4-2.3c0.8-0.8,1.6-1.7,2.3-2.7
		c0.3,0.7,0.5,1.6,0.7,2.5C42.9,50.1,42.1,50.9,41.1,51.6z M45.6,46.7c-0.6,0.9-1.2,1.7-1.9,2.5c0-0.2-0.1-0.4-0.1-0.6
		c-0.1-0.6-0.3-1.3-0.6-1.9c0.6-0.9,1.2-1.8,1.7-2.8C45.1,44.7,45.4,45.7,45.6,46.7z M43.4,41.2c0.2,0.3,0.4,0.6,0.5,0.9
		c0.3,0.5,0.5,1,0.8,1.7c-0.5,1-1.1,1.9-1.7,2.8c-0.2-0.4-0.3-0.7-0.5-1.1c-0.2-0.4-0.4-0.7-0.6-1C42.4,43.5,43,42.4,43.4,41.2z
		 M41.8,44.5c0.2,0.3,0.4,0.6,0.6,1c0.2,0.3,0.4,0.7,0.5,1.1c-0.7,1-1.5,1.8-2.3,2.6c-0.2-0.6-0.3-1-0.5-1.4
		c-0.1-0.3-0.2-0.5-0.3-0.7C40.6,46.3,41.3,45.4,41.8,44.5z M39.9,47.1c0.1,0.2,0.2,0.5,0.3,0.7c0.2,0.4,0.3,0.9,0.5,1.5
		c-0.7,0.7-1.4,1.3-2.2,1.9c-0.1-0.8-0.3-1.5-0.5-1.9c0,0,0-0.1,0-0.1C38.6,48.5,39.3,47.9,39.9,47.1z M37.9,49.2c0,0,0,0.1,0,0.1
		c0.2,0.5,0.3,1.1,0.5,2c-0.8,0.6-1.6,1.1-2.5,1.6c-0.1-0.8-0.2-1.4-0.3-1.9C36.4,50.4,37.2,49.8,37.9,49.2z M34.8,51.4
		c0.3-0.2,0.5-0.3,0.8-0.5c0.1,0.5,0.3,1.1,0.3,1.9c-0.1,0-0.2,0.1-0.2,0.1c-0.7,0.4-1.5,0.7-2.3,1c0-0.7-0.1-1.3-0.2-1.7
		C33.7,52,34.3,51.7,34.8,51.4z M33.2,52.2c0.1,0.5,0.2,1.1,0.2,1.7c-0.8,0.3-1.5,0.6-2.3,0.8c0-0.6-0.1-1.2-0.2-1.6
		C31.7,52.9,32.4,52.6,33.2,52.2z M30.9,53.2c0.1,0.4,0.1,1,0.2,1.6c-0.7,0.2-1.4,0.4-2.1,0.5c0-0.6-0.1-1.1-0.2-1.5
		C29.5,53.6,30.2,53.4,30.9,53.2z M28.7,53.8c0.1,0.4,0.1,0.9,0.2,1.5c-0.7,0.1-1.3,0.3-2,0.3c0-0.5-0.1-1-0.2-1.4
		C27.4,54.2,28.1,54,28.7,53.8z M26.7,54.3c0.1,0.4,0.1,0.9,0.2,1.4c-0.6,0.1-1.3,0.2-1.9,0.2c0-0.5-0.1-0.9-0.2-1.3
		C25.4,54.5,26,54.4,26.7,54.3z M24.6,54.6C24.6,54.6,24.7,54.6,24.6,54.6c0.2,0.3,0.2,0.8,0.3,1.3C24.2,56,23.6,56,22.9,56
		c0-0.5,0-0.9-0.1-1.2C23.5,54.7,24,54.7,24.6,54.6z M21,54.9c0.6,0,1.2-0.1,1.8-0.1c0,0.3,0.1,0.8,0.1,1.2c-0.6,0-1.3,0-1.9,0
		C21,55.6,21,55.2,21,54.9z M19.3,54.9c0,0,0.1,0,0.2,0c0.5,0,1.1,0,1.6,0c0,0.3,0,0.7-0.1,1.1c-0.6,0-1.2,0-1.8,0
		C19.2,55.6,19.2,55.3,19.3,54.9z M17.6,54.9c0.6,0,1.1,0,1.6,0c0,0.3-0.1,0.7-0.2,1.1c-0.6,0-1.2-0.1-1.7-0.1
		C17.5,55.5,17.5,55.2,17.6,54.9z M16,54.8c0.5,0,1,0.1,1.6,0.1c-0.1,0.3-0.1,0.6-0.2,1c-0.6,0-1.1-0.1-1.7-0.2
		C15.8,55.4,15.9,55.1,16,54.8z M14.6,54.7c0.5,0,1,0.1,1.4,0.1c-0.1,0.3-0.2,0.6-0.4,0.9c-0.5-0.1-1-0.1-1.4-0.2c0,0,0,0-0.1,0
		C14.3,55.2,14.4,55,14.6,54.7z M13.2,54.6c0.4,0,0.8,0.1,1.2,0.1c0,0,0.1,0,0.1,0c-0.1,0.3-0.3,0.5-0.5,0.8c-0.5-0.1-1-0.2-1.5-0.2
		C12.8,55,13,54.8,13.2,54.6z M11.7,54.4c0.5,0.1,1,0.1,1.4,0.2c-0.2,0.2-0.4,0.5-0.6,0.7c-0.5-0.1-1-0.2-1.5-0.3
		C11.3,54.8,11.5,54.6,11.7,54.4z M10.4,54.2c0.4,0.1,0.8,0.1,1.3,0.2c-0.2,0.2-0.4,0.4-0.6,0.6c-0.5-0.1-0.9-0.2-1.3-0.3
		C10,54.5,10.2,54.3,10.4,54.2z M9.1,53.9c0.4,0.1,0.8,0.2,1.2,0.2c-0.2,0.2-0.5,0.4-0.7,0.6c-0.4-0.1-0.8-0.2-1.3-0.3
		C8.7,54.3,8.9,54.1,9.1,53.9z M7.9,53.7c0.4,0.1,0.8,0.2,1.2,0.2c-0.2,0.2-0.5,0.3-0.7,0.5c-0.4-0.1-0.8-0.2-1.2-0.3
		C7.4,53.9,7.6,53.8,7.9,53.7z M6.8,53.5c0.3,0.1,0.6,0.2,1,0.2c-0.2,0.1-0.5,0.3-0.7,0.4c-0.3-0.1-0.6-0.2-1-0.3
		C6.4,53.7,6.6,53.6,6.8,53.5z M5.9,53.2c0.3,0.1,0.6,0.1,0.9,0.2c-0.2,0.1-0.4,0.2-0.6,0.4c-0.3-0.1-0.6-0.2-0.9-0.3
		C5.5,53.5,5.7,53.3,5.9,53.2z M4.9,53c0.3,0.1,0.6,0.2,0.9,0.2c-0.2,0.1-0.4,0.2-0.6,0.3c-0.3-0.1-0.6-0.2-0.8-0.3
		C4.6,53.2,4.7,53.1,4.9,53z M4.2,52.8c0.2,0.1,0.4,0.1,0.7,0.2c-0.2,0.1-0.3,0.2-0.5,0.3C4,53.2,3.8,53.1,3.6,53
		C3.8,53,4,52.9,4.2,52.8z M3.6,53.1c0.2,0.1,0.5,0.2,0.7,0.2c-0.2,0.1-0.3,0.2-0.5,0.2c-0.3-0.1-0.5-0.2-0.7-0.3
		C3.2,53.2,3.4,53.1,3.6,53.1z"/>
	<path class="st6" d="M15.7,25.7c0.1,0,0.1,0,0.2,0C32.3,27,51.9,38.6,44.7,52.3c0,0,1-0.9,1.5-2.2c6-13.3-13.2-24.5-29.3-25.7
		c-0.1,0-0.1,0-0.2,0l-4.3-5.9c0,0-0.7,1.7-0.8,1.7L15.7,25.7z"/>
	<g>
		<path class="st6" d="M42,34.9c0.1,0.5,0.1,1.1,0.1,1.6c3.8,4,5.3,9.2,3.3,13.3c-2.7,5.8-11.3,8.6-21.5,8.8
			c11,0.2,20.3-3.3,23.1-9.4C49.2,44.4,47.1,39.2,42,34.9z"/>
	</g>
	
		<radialGradient id="SVGID_3_" cx="-304.9478" cy="-531.8931" r="14.6836" gradientTransform="matrix(0.4411 -0.8974 -1.7312 -0.8509 -756.0972 -694.2158)" gradientUnits="userSpaceOnUse">
		<stop  offset="0" style="stop-color:#85C441"/>
		<stop  offset="0.1993" style="stop-color:#81C341"/>
		<stop  offset="0.3942" style="stop-color:#74C044"/>
		<stop  offset="0.5873" style="stop-color:#5CBA47"/>
		<stop  offset="0.7794" style="stop-color:#27B34B"/>
		<stop  offset="0.9691" style="stop-color:#00AA4F"/>
		<stop  offset="1" style="stop-color:#00A94F"/>
	</radialGradient>
	<path class="st7" d="M16.8,24.6c0.1,0,0.1,0,0.2,0C33,25.8,52.2,36.9,46.2,50.2c-0.5,1-1.1,1.7-1.4,2l0,0c0,0,1.1-0.9,2.4-3.2l0,0
		c4.1-6.7,13.3-27.8-30.5-34.8l-4.2,4.2c0,0,0,0.1,0,0.2L16.8,24.6z"/>
	<path class="st8" d="M48.5,6.1c-0.2,0.1-0.4,0.1-0.6,0.2c-0.2-0.1-0.4-0.2-0.7-0.3c0.2-0.1,0.4-0.2,0.6-0.3c0,0,0,0,0,0
		c-0.2,0.1-0.4,0.2-0.6,0.3c-0.2-0.1-0.5-0.2-0.8-0.3c0.2-0.1,0.5-0.2,0.7-0.3c0,0,0,0,0,0c-0.2,0.1-0.5,0.2-0.7,0.3
		c-0.3-0.1-0.5-0.2-0.8-0.3c0.2-0.1,0.5-0.2,0.8-0.3c0,0,0,0,0,0c-0.3,0.1-0.5,0.2-0.8,0.3c-0.3-0.1-0.6-0.2-0.9-0.3
		c0.3-0.1,0.6-0.2,0.9-0.4c0,0,0,0,0,0c-0.3,0.1-0.6,0.2-0.9,0.4c-0.4-0.1-0.8-0.3-1.2-0.4c0.3-0.2,0.6-0.3,0.9-0.4c0,0,0,0,0,0
		c-0.3,0.2-0.6,0.3-0.9,0.4c-0.4-0.1-0.8-0.2-1.3-0.4c0.3-0.2,0.6-0.3,0.9-0.5c0,0,0,0,0,0c-0.3,0.2-0.6,0.3-0.9,0.5
		c-0.4-0.1-0.9-0.2-1.4-0.4c0.3-0.2,0.5-0.4,0.8-0.6c0,0,0,0,0,0c-0.3,0.2-0.6,0.4-0.8,0.6c-0.5-0.1-1-0.3-1.5-0.4
		c0.2-0.2,0.5-0.5,0.8-0.7c0,0,0,0,0,0c-0.3,0.2-0.6,0.5-0.8,0.7c-0.5-0.1-0.9-0.2-1.4-0.3c-0.1,0-0.2,0-0.3-0.1
		c0.2-0.3,0.4-0.5,0.6-0.8c0,0,0,0,0,0c-0.2,0.3-0.4,0.5-0.6,0.8C36.8,3,36.3,3,35.7,2.9c0.2-0.3,0.3-0.6,0.5-0.9h0
		c-0.2,0.3-0.3,0.6-0.5,0.9c-0.6-0.1-1.2-0.2-1.8-0.3C34,2.3,34.1,2,34.3,1.7h0C34.1,2,34,2.3,33.9,2.6c-0.6-0.1-1.2-0.2-1.8-0.2
		c0.1-0.3,0.2-0.6,0.3-1h0c-0.1,0.3-0.2,0.7-0.3,1c-0.6-0.1-1.3-0.1-1.9-0.2c0.1-0.3,0.2-0.7,0.3-1h0c-0.1,0.4-0.2,0.7-0.3,1
		c-0.7,0-1.4-0.1-2.1-0.1c0-0.3,0.1-0.7,0.2-1.1h0c-0.1,0.4-0.1,0.8-0.2,1.1c-0.1,0-0.2,0-0.4,0c-0.2,0-0.3,0-0.4,0
		c-0.4,0-0.8,0-1.2,0c0-0.4,0-0.8,0.1-1.2h0C26,1.4,26,1.8,26,2.2c-0.6,0-1.3,0.1-1.9,0.1c0-0.4,0-0.8,0.1-1.2h0
		c0,0.4-0.1,0.8-0.1,1.2c-0.7,0.1-1.4,0.2-2,0.3c0-0.4,0-0.9,0.1-1.3h0c0,0.5-0.1,0.9-0.1,1.3c-0.7,0.1-1.4,0.3-2.1,0.4
		c0-0.5,0-0.9,0.1-1.4h0c0,0.5-0.1,1-0.1,1.4c-0.8,0.2-1.6,0.4-2.3,0.6c0-0.5,0.1-1,0.2-1.6h0c-0.1,0.6-0.1,1.1-0.2,1.6
		c-0.5,0.2-0.9,0.3-1.3,0.5c-0.4,0.2-0.8,0.3-1.2,0.5c0-0.6,0.1-1.3,0.1-2h0C15,3.4,15,4.1,15,4.7c-0.9,0.4-1.7,0.9-2.6,1.4
		c0-0.7,0-1.5,0.2-2.4h0c-0.1,0.9-0.2,1.7-0.2,2.5c-0.9,0.5-1.7,1.1-2.5,1.8C9.8,7,9.8,6.1,9.8,5h0c-0.1,1.1-0.1,2,0,2.9
		C9,8.7,8.1,9.5,7.3,10.4c-0.1-1-0.1-2.2,0.1-3.5h0c-0.2,1.2-0.3,2.4-0.1,3.5C6.6,11.2,6,12,5.4,12.9c-0.2-0.9-0.2-1.8-0.2-2.7h0
		c-0.1,1,0,1.9,0.2,2.7c-0.7,1.1-1.4,2.2-2,3.5c0,0,0,0,0,0c0.6-1.2,1.3-2.4,2-3.5c0.2,1,0.5,2,0.8,2.8c-0.6,1.2-1.2,2.4-1.6,3.7
		c0,0,0,0,0,0c0.5-1.3,1-2.6,1.6-3.7c0.3,0.6,0.5,1.2,0.8,1.6c0.2,0.3,0.4,0.6,0.5,0.9c-0.5,1.2-0.9,2.4-1.2,3.7l0,0
		c0.3-1.3,0.7-2.6,1.2-3.7c0.8,1.3,1.6,2.1,1.6,2.1h0v0c-0.1-0.1-0.8-0.9-1.6-2.1c0.5-1.1,1-2.2,1.6-3.2c0.7,1,1.3,1.5,1.3,1.5v0
		c0,0,0,0,0,0c0,0-0.6-0.5-1.3-1.5c0.6-0.9,1.2-1.8,1.9-2.6c0.5,1.1,1,1.7,1,1.7l0,0c0,0-0.5-0.6-1-1.7c0.6-0.7,1.3-1.4,2-2
		c0.5,1.2,1,1.7,1,1.7l0,0l0,0c0,0-0.5-0.5-1-1.7c0.7-0.6,1.5-1.2,2.3-1.7c0,0,0,0,0,0c0.3,1.2,0.8,1.7,0.8,1.8l0,0l0,0
		c0,0-0.4-0.5-0.8-1.8c0,0,0,0,0-0.1c0.3-0.2,0.5-0.3,0.8-0.5c0.5-0.3,1-0.6,1.6-0.8c0,0,0,0,0,0.1c0.3,1.2,0.6,1.8,0.6,1.8l0,0
		c0,0-0.4-0.6-0.6-1.8c0.7-0.3,1.5-0.6,2.2-0.9c0.2,1.3,0.5,1.8,0.5,1.8l0,0l0,0c0,0-0.3-0.5-0.5-1.8c0.7-0.3,1.4-0.5,2.2-0.6
		c0.2,1.1,0.4,1.7,0.4,1.7l0,0c0,0-0.2-0.6-0.4-1.7c0.7-0.2,1.3-0.3,2-0.5c0.2,1,0.4,1.5,0.4,1.5h0l0,0c0,0-0.2-0.5-0.4-1.5
		C25,5.2,25.6,5.1,26.3,5c0.1,0.7,0.3,1.2,0.4,1.4h0c-0.1-0.2-0.2-0.7-0.4-1.4c0.6-0.1,1.2-0.2,1.8-0.2c0.1,0.6,0.2,1.1,0.2,1.3h0
		c-0.1-0.2-0.2-0.6-0.2-1.3c0.6,0,1.2-0.1,1.8-0.1c0,0.5,0,0.9,0.1,1.2h0c0-0.3-0.1-0.7-0.1-1.2c0.6,0,1.2,0,1.7,0
		c0,0.4,0,0.8,0,1.1h0c0-0.3,0-0.6,0-1.1c0.6,0,1.1,0,1.6,0c-0.1,0.4-0.1,0.7-0.1,1h0c0-0.3,0.1-0.6,0.1-1c0.5,0,1,0,1.6,0.1
		c-0.1,0.3-0.2,0.6-0.3,0.8h0c0.1-0.2,0.2-0.5,0.3-0.8c0.5,0,1,0.1,1.4,0.1c-0.1,0.3-0.2,0.5-0.3,0.7c0,0,0,0,0,0
		c0.1-0.2,0.2-0.5,0.3-0.7c0,0,0.1,0,0.1,0C36.9,5,37.3,5,37.7,5c-0.2,0.2-0.3,0.5-0.5,0.6c0,0,0,0,0,0c0.1-0.2,0.3-0.4,0.5-0.6
		c0.5,0.1,1,0.1,1.4,0.2c-0.2,0.2-0.3,0.4-0.5,0.5c0,0,0,0,0,0c0.1-0.2,0.3-0.3,0.5-0.5c0.4,0.1,0.8,0.1,1.2,0.2
		c-0.2,0.2-0.3,0.3-0.5,0.5c0,0,0,0,0,0c0.2-0.1,0.3-0.3,0.5-0.5c0.4,0.1,0.8,0.2,1.2,0.2c-0.2,0.1-0.3,0.3-0.5,0.4c0,0,0,0,0,0
		c0.2-0.1,0.3-0.2,0.5-0.4c0.4,0.1,0.8,0.2,1.2,0.2c-0.2,0.1-0.3,0.2-0.5,0.3c0,0,0,0,0,0c0.2-0.1,0.3-0.2,0.5-0.3
		c0.3,0.1,0.7,0.2,1,0.2c-0.2,0.1-0.3,0.2-0.4,0.3c0,0,0,0,0,0c0.1-0.1,0.3-0.2,0.4-0.3c0.3,0.1,0.6,0.2,0.9,0.2
		c-0.1,0.1-0.3,0.2-0.4,0.2c0,0,0,0,0,0c0.1-0.1,0.2-0.2,0.4-0.2c0.3,0.1,0.6,0.2,0.9,0.2c-0.1,0.1-0.2,0.1-0.3,0.2c0,0,0,0,0,0
		c0.1-0.1,0.2-0.1,0.3-0.2c0.3,0.1,0.5,0.1,0.7,0.2c-0.1,0.1-0.2,0.1-0.3,0.2c0,0,0,0,0,0c0.1-0.1,0.2-0.1,0.3-0.2
		C47.1,6.9,47.3,7,47.5,7c0,0,0,0,0,0c-0.1,0-0.3-0.1-0.7-0.2c0.2-0.1,0.4-0.2,0.6-0.3c0.3,0.1,0.6,0.2,0.6,0.2c0,0,0,0,0,0
		c-0.1,0-0.3-0.1-0.6-0.2c0.2-0.1,0.3-0.1,0.5-0.2c0.3,0.1,0.5,0.2,0.6,0.2h0v0c0,0-0.2-0.1-0.6-0.2C48.1,6.2,48.3,6.1,48.5,6.1
		C48.5,6.1,48.5,6.1,48.5,6.1z M46.4,5.7c0.3,0.1,0.5,0.2,0.8,0.3c-0.2,0.1-0.3,0.2-0.5,0.2c-0.3-0.1-0.5-0.2-0.8-0.3
		C46,5.9,46.2,5.8,46.4,5.7z M45.5,5.4c0.3,0.1,0.6,0.2,0.8,0.3c-0.2,0.1-0.4,0.2-0.6,0.3c-0.3-0.1-0.6-0.2-0.9-0.3
		C45.1,5.7,45.3,5.5,45.5,5.4z M44.6,5.1c0.3,0.1,0.6,0.2,0.9,0.3c-0.2,0.1-0.4,0.2-0.6,0.3c-0.3-0.1-0.6-0.2-1-0.3
		C44.1,5.3,44.3,5.2,44.6,5.1z M43.3,4.7c0.4,0.1,0.8,0.3,1.2,0.4c-0.3,0.1-0.5,0.2-0.7,0.3c-0.4-0.1-0.8-0.2-1.2-0.3
		C42.9,5,43.1,4.9,43.3,4.7z M42.1,4.4c0.4,0.1,0.8,0.2,1.3,0.4c-0.3,0.2-0.5,0.3-0.7,0.4c-0.4-0.1-0.8-0.2-1.3-0.3
		C41.6,4.7,41.8,4.5,42.1,4.4z M40.7,4c0.5,0.1,0.9,0.2,1.3,0.4c-0.3,0.2-0.5,0.3-0.7,0.5c-0.4-0.1-0.9-0.2-1.3-0.3
		C40.2,4.4,40.4,4.2,40.7,4z M39.1,3.6c0.5,0.1,1,0.2,1.5,0.4c-0.3,0.2-0.5,0.4-0.7,0.6c-0.5-0.1-1-0.2-1.5-0.3
		C38.7,4.1,38.9,3.8,39.1,3.6z M37.4,3.2c0.1,0,0.2,0,0.3,0.1c0.5,0.1,0.9,0.2,1.4,0.3c-0.3,0.2-0.5,0.5-0.7,0.7
		c-0.5-0.1-1-0.2-1.5-0.2C37,3.8,37.2,3.5,37.4,3.2z M35.8,2.9c0.5,0.1,1.1,0.2,1.6,0.3C37.2,3.5,37,3.8,36.8,4c0,0-0.1,0-0.1,0
		c-0.5-0.1-1-0.1-1.4-0.2C35.5,3.5,35.6,3.2,35.8,2.9z M34,2.6c0.6,0.1,1.2,0.2,1.8,0.3c-0.2,0.3-0.3,0.6-0.5,0.9
		c-0.6-0.1-1.1-0.1-1.7-0.2C33.7,3.3,33.8,3,34,2.6z M32.1,2.4c0.6,0.1,1.2,0.1,1.8,0.2c-0.1,0.4-0.2,0.7-0.3,1
		c-0.6,0-1.1-0.1-1.7-0.1C31.9,3.2,32,2.8,32.1,2.4z M30.2,2.3c0.6,0,1.3,0.1,1.9,0.2c-0.1,0.4-0.2,0.8-0.3,1.1
		c-0.6,0-1.2,0-1.8-0.1C30.1,3.1,30.1,2.7,30.2,2.3z M28.1,2.2c0.7,0,1.4,0,2.1,0.1C30.1,2.7,30,3.1,30,3.5c-0.1,0-0.3,0-0.4,0
		c-0.5,0-1,0-1.5,0C28,3.1,28.1,2.7,28.1,2.2z M26,2.2c0.7,0,1.4,0,2,0C28,2.7,28,3.1,28,3.5c-0.6,0-1.3,0.1-1.9,0.1l0,0
		C26,3.2,26,2.8,26,2.2z M24.1,2.4c0.6-0.1,1.3-0.1,1.9-0.1c0,0.5,0,1,0,1.4c-0.6,0.1-1.3,0.1-1.9,0.2C24.1,3.4,24.1,2.9,24.1,2.4z
		 M22.1,2.6c0.7-0.1,1.3-0.2,2-0.3c0,0.5,0,1,0,1.5c-0.7,0.1-1.4,0.2-2,0.3C22.1,3.7,22,3.2,22.1,2.6z M19.9,3.1
		c0.7-0.2,1.4-0.3,2.1-0.4c0,0.6,0,1.1,0,1.6c-0.7,0.2-1.4,0.3-2.1,0.5C19.9,4.2,19.9,3.7,19.9,3.1z M17.5,3.7
		c0.8-0.3,1.6-0.5,2.3-0.6c0,0.6,0,1.2,0,1.7c-0.8,0.2-1.6,0.5-2.3,0.8C17.5,5,17.5,4.4,17.5,3.7z M15,4.7c0.4-0.2,0.8-0.4,1.3-0.5
		c0.4-0.2,0.9-0.3,1.3-0.5c0,0.7,0,1.3,0,1.8c-0.8,0.3-1.6,0.7-2.3,1c-0.1,0-0.2,0.1-0.2,0.1C15,6.1,14.9,5.5,15,4.7z M14.9,4.7
		c0,0.8,0,1.4,0.1,2c-0.9,0.5-1.7,1-2.5,1.6c-0.1-0.6-0.2-1.4-0.2-2.2C13.2,5.6,14,5.2,14.9,4.7z M12.3,6.1c0,0.8,0.1,1.6,0.2,2.2
		c-0.8,0.6-1.5,1.2-2.2,1.9c-0.2-0.7-0.3-1.4-0.4-2.3C10.6,7.3,11.4,6.7,12.3,6.1z M9.8,8c0.1,0.9,0.2,1.6,0.4,2.3
		c-0.8,0.8-1.6,1.7-2.3,2.7c-0.3-0.7-0.5-1.6-0.7-2.5C8.1,9.5,8.9,8.7,9.8,8z M5.3,12.9c0.6-0.9,1.2-1.7,1.9-2.5
		c0,0.2,0.1,0.4,0.1,0.6c0.1,0.6,0.3,1.3,0.6,1.9c-0.6,0.9-1.2,1.8-1.7,2.8C5.8,14.9,5.5,13.9,5.3,12.9z M7.5,18.3
		C7.3,18,7.1,17.7,7,17.4c-0.3-0.5-0.5-1-0.8-1.7c0.5-1,1.1-1.9,1.7-2.8c0.2,0.4,0.3,0.7,0.5,1.1c0.2,0.4,0.4,0.7,0.6,1
		C8.5,16.1,8,17.2,7.5,18.3z M9.1,15.1c-0.2-0.3-0.4-0.6-0.6-1c-0.2-0.3-0.4-0.7-0.5-1.1c0.7-1,1.5-1.8,2.3-2.6
		c0.2,0.6,0.3,1,0.5,1.4c0.1,0.3,0.2,0.5,0.3,0.7C10.3,13.3,9.7,14.1,9.1,15.1z M11,12.4c-0.1-0.2-0.2-0.5-0.3-0.7
		c-0.2-0.4-0.3-0.9-0.5-1.5c0.7-0.7,1.4-1.3,2.2-1.9c0.1,0.8,0.3,1.5,0.5,1.9c0,0,0,0.1,0,0.1C12.3,11.1,11.6,11.7,11,12.4z
		 M13,10.4c0,0,0-0.1,0-0.1c-0.2-0.5-0.3-1.1-0.5-2c0.8-0.6,1.6-1.1,2.5-1.6c0.1,0.8,0.2,1.4,0.3,1.9C14.5,9.2,13.8,9.8,13,10.4z
		 M16.2,8.2c-0.3,0.2-0.5,0.3-0.8,0.5c-0.1-0.5-0.3-1.1-0.3-1.9c0.1,0,0.2-0.1,0.2-0.1c0.7-0.4,1.5-0.7,2.3-1c0,0.7,0.1,1.3,0.2,1.7
		C17.2,7.6,16.7,7.9,16.2,8.2z M17.8,7.3c-0.1-0.5-0.2-1.1-0.2-1.7c0.8-0.3,1.5-0.6,2.3-0.8C19.9,5.4,20,6,20,6.4
		C19.2,6.7,18.5,7,17.8,7.3z M20.1,6.4c-0.1-0.4-0.1-1-0.2-1.6c0.7-0.2,1.4-0.4,2.1-0.5c0,0.6,0.1,1.1,0.2,1.5
		C21.5,5.9,20.8,6.2,20.1,6.4z M22.2,5.7c-0.1-0.4-0.1-0.9-0.2-1.5c0.7-0.1,1.3-0.3,2-0.3c0,0.5,0.1,1,0.2,1.4
		C23.6,5.4,22.9,5.6,22.2,5.7z M24.3,5.3c-0.1-0.4-0.1-0.9-0.2-1.4c0.6-0.1,1.3-0.2,1.9-0.2c0,0.5,0.1,0.9,0.2,1.3
		C25.6,5,24.9,5.2,24.3,5.3z M26.3,5C26.3,5,26.3,5,26.3,5c-0.2-0.3-0.2-0.8-0.3-1.3c0.6-0.1,1.3-0.1,1.9-0.1c0,0.5,0,0.9,0.1,1.2
		C27.5,4.8,26.9,4.9,26.3,5z M29.9,4.7c-0.6,0-1.2,0.1-1.8,0.1C28.1,4.4,28,4,28,3.6c0.6,0,1.3,0,1.9,0C29.9,3.9,29.9,4.3,29.9,4.7z
		 M31.7,4.6c0,0-0.1,0-0.2,0c-0.5,0-1.1,0-1.6,0c0-0.3,0-0.7,0.1-1.1c0.6,0,1.2,0,1.8,0C31.8,4,31.7,4.3,31.7,4.6z M33.3,4.7
		c-0.6,0-1.1,0-1.6,0c0-0.3,0.1-0.7,0.2-1.1c0.6,0,1.2,0.1,1.7,0.1C33.5,4.1,33.4,4.4,33.3,4.7z M34.9,4.8c-0.5,0-1-0.1-1.6-0.1
		c0.1-0.3,0.1-0.6,0.2-1c0.6,0,1.1,0.1,1.7,0.2C35.2,4.2,35,4.5,34.9,4.8z M36.4,4.9c-0.5,0-1-0.1-1.4-0.1c0.1-0.3,0.2-0.6,0.4-0.9
		c0.5,0.1,1,0.1,1.4,0.2c0,0,0,0,0.1,0C36.7,4.4,36.5,4.6,36.4,4.9z M37.8,5c-0.4,0-0.8-0.1-1.2-0.1c0,0-0.1,0-0.1,0
		c0.1-0.3,0.3-0.5,0.5-0.8c0.5,0.1,1,0.2,1.5,0.2C38.1,4.5,37.9,4.8,37.8,5z M39.3,5.2c-0.5-0.1-1-0.1-1.4-0.2
		c0.2-0.2,0.4-0.5,0.6-0.7c0.5,0.1,1,0.2,1.5,0.3C39.7,4.8,39.4,5,39.3,5.2z M40.5,5.4c-0.4-0.1-0.8-0.1-1.3-0.2
		c0.2-0.2,0.4-0.4,0.6-0.6c0.5,0.1,0.9,0.2,1.3,0.3C41,5,40.8,5.2,40.5,5.4z M41.8,5.7c-0.4-0.1-0.8-0.2-1.2-0.2
		c0.2-0.2,0.5-0.4,0.7-0.6c0.4,0.1,0.8,0.2,1.3,0.3C42.3,5.3,42,5.5,41.8,5.7z M43.1,5.9c-0.4-0.1-0.8-0.2-1.2-0.2
		c0.2-0.2,0.5-0.3,0.7-0.5c0.4,0.1,0.8,0.2,1.2,0.3C43.5,5.6,43.3,5.8,43.1,5.9z M44.1,6.1c-0.3-0.1-0.6-0.2-1-0.2
		c0.2-0.1,0.5-0.3,0.7-0.4c0.3,0.1,0.6,0.2,1,0.3C44.6,5.9,44.3,6,44.1,6.1z M45.1,6.3c-0.3-0.1-0.6-0.1-0.9-0.2
		c0.2-0.1,0.4-0.2,0.6-0.4c0.3,0.1,0.6,0.2,0.9,0.3C45.5,6.1,45.3,6.2,45.1,6.3z M46,6.6c-0.3-0.1-0.6-0.2-0.9-0.2
		c0.2-0.1,0.4-0.2,0.6-0.3c0.3,0.1,0.6,0.2,0.8,0.3C46.4,6.4,46.2,6.5,46,6.6z M46.8,6.8c-0.2-0.1-0.4-0.1-0.7-0.2
		c0.2-0.1,0.3-0.2,0.5-0.3c0.3,0.1,0.5,0.2,0.7,0.2C47.2,6.6,47,6.7,46.8,6.8z M47.4,6.5c-0.2-0.1-0.5-0.2-0.7-0.2
		C46.8,6.2,47,6.1,47.2,6c0.3,0.1,0.5,0.2,0.7,0.3C47.7,6.4,47.6,6.4,47.4,6.5z"/>
	<path class="st9" d="M35.2,33.9c-0.1,0-0.1,0-0.2,0C18.6,32.6-1,21,6.2,7.2c0,0-1,0.9-1.5,2.2c-6,13.3,13.2,24.5,29.3,25.7
		c0.1,0,0.1,0,0.2,0l4.3,5.9c0,0,0.7-1.7,0.8-1.7L35.2,33.9z"/>
	<g>
		<path class="st9" d="M8.9,24.7c-0.1-0.5-0.1-1.1-0.1-1.6c-3.8-4-5.3-9.2-3.3-13.3C8.2,4,16.8,1.2,27,1c-11-0.2-20.3,3.3-23.1,9.4
			C1.7,15.1,3.8,20.4,8.9,24.7z"/>
	</g>
	
		<radialGradient id="SVGID_4_" cx="36.7623" cy="404.0121" r="14.6836" gradientTransform="matrix(-0.4411 0.8974 1.7312 0.8509 -662.4623 -349.2207)" gradientUnits="userSpaceOnUse">
		<stop  offset="0" style="stop-color:#51AEDA"/>
		<stop  offset="0.1993" style="stop-color:#4CABD9"/>
		<stop  offset="0.3942" style="stop-color:#3CA4D5"/>
		<stop  offset="0.5873" style="stop-color:#1599CE"/>
		<stop  offset="0.7794" style="stop-color:#008AC4"/>
		<stop  offset="0.9691" style="stop-color:#007AB9"/>
		<stop  offset="1" style="stop-color:#0077B7"/>
	</radialGradient>
	<path class="st10" d="M34.1,35c-0.1,0-0.1,0-0.2,0C17.9,33.7-1.2,22.7,4.7,9.3c0.5-1,1.1-1.7,1.4-2l0,0c0,0-1.1,0.9-2.4,3.2l0,0
		c-4.2,6.7-13.3,27.8,30.5,34.8l4.2-4.2c0,0,0-0.1,0-0.2L34.1,35z"/>
</g>
<g id="LogoMark_1_">
	
		<linearGradient id="SVGID_5_" gradientUnits="userSpaceOnUse" x1="34.4285" y1="114.1315" x2="3.0946" y2="114.1315" gradientTransform="matrix(1 0 0 -1 0 190)">
		<stop  offset="9.852217e-03" style="stop-color:#757575"/>
		<stop  offset="0.5093" style="stop-color:#606060"/>
		<stop  offset="0.7117" style="stop-color:#505050"/>
		<stop  offset="0.8988" style="stop-color:#434343"/>
		<stop  offset="1" style="stop-color:#3E3E3E"/>
	</linearGradient>
	<path class="st11" d="M49,69.3c-2.9-1.5-6.3-2.8-10-3.7c-15.6-3.9-31.3-0.4-35.1,7.8c-2.2,4.7,0,9.9,5.1,14.3
		c-0.3-2.5,0.1-5,1.2-7.4c4.8-10.3,21.4-14.1,37-10.2C47.2,70.2,49,69.3,49,69.3z"/>
	<g>
		<path class="st12" d="M63.7,113.5c-0.3-0.5-0.8-0.6-1.3-0.6c-0.5,0-1.3,0.2-1.3,0.9c0,0.6,0.6,0.7,1.3,0.8
			c0.8,0.2,1.7,0.3,1.7,1.3c0,1-1,1.2-1.7,1.2c-0.7,0-1.4-0.3-1.8-1l0.3-0.2c0.3,0.5,1,0.8,1.5,0.8s1.4-0.2,1.4-0.9
			c0-0.6-0.7-0.8-1.4-0.9c-0.8-0.2-1.6-0.3-1.6-1.1c0-0.9,1-1.2,1.7-1.2c0.6,0,1.2,0.1,1.6,0.7L63.7,113.5z"/>
		<path class="st12" d="M65.1,112.7v1.9c0.3-0.5,0.7-0.6,1.1-0.6c0.9,0,1.3,0.6,1.3,1.4v1.8h-0.3v-1.8c0-0.6-0.3-1.1-1-1.1
			c-0.6,0-1.1,0.5-1.1,1.1v1.7h-0.3v-4.4L65.1,112.7L65.1,112.7z"/>
		<path class="st12" d="M71.3,114c0,1,0,2.1,0,3.1H71v-0.6c-0.3,0.5-0.8,0.7-1.3,0.7c-0.9,0-1.6-0.6-1.6-1.6s0.7-1.6,1.6-1.6
			c0.5,0,1,0.2,1.3,0.7V114L71.3,114L71.3,114z M68.4,115.5c0,0.8,0.6,1.3,1.3,1.3c1.7,0,1.7-2.6,0-2.6
			C69,114.2,68.4,114.7,68.4,115.5z"/>
		<path class="st12" d="M72.1,118.4V114h0.3v0.7c0.2-0.5,0.7-0.8,1.3-0.8c0.8,0,1.5,0.6,1.5,1.6c0,1-0.7,1.6-1.6,1.6
			c-0.5,0-1-0.3-1.3-0.8v2L72.1,118.4L72.1,118.4z M74.9,115.5c0-0.9-0.6-1.3-1.3-1.3c-0.7,0-1.3,0.5-1.3,1.3s0.5,1.3,1.3,1.3
			C74.3,116.8,74.9,116.4,74.9,115.5z"/>
		<path class="st12" d="M75.8,115.5c0-0.9,0.7-1.6,1.6-1.6c0.9,0,1.6,0.5,1.5,1.7h-2.7c0.1,0.7,0.6,1.1,1.3,1.1
			c0.4,0,0.9-0.2,1.1-0.5l0.2,0.2c-0.3,0.4-0.8,0.6-1.3,0.6C76.5,117.1,75.8,116.5,75.8,115.5z M78.6,115.4c0-0.8-0.5-1.2-1.3-1.2
			c-0.6,0-1.2,0.4-1.3,1.2H78.6z"/>
		<path class="st12" d="M84.9,117.1l-0.5-1.1h-2.6l-0.5,1.1H81l2-4.4h0.4l2,4.4H84.9z M84.3,115.7l-1.2-2.7l-1.2,2.7H84.3z"/>
		<path class="st12" d="M86,114v0.5c0.2-0.4,0.7-0.6,1.1-0.6c0.8,0,1.4,0.5,1.4,1.4v1.8h-0.3v-1.8c0-0.7-0.4-1.1-1.1-1.1
			c-0.6,0-1.1,0.5-1.1,1.1v1.7h-0.3v-3.1L86,114L86,114z"/>
		<path class="st12" d="M92.3,114c0,1,0,2.1,0,3.1H92v-0.6c-0.3,0.5-0.8,0.7-1.3,0.7c-0.9,0-1.6-0.6-1.6-1.6s0.7-1.6,1.6-1.6
			c0.5,0,1,0.2,1.3,0.7V114L92.3,114L92.3,114z M89.5,115.5c0,0.8,0.6,1.3,1.3,1.3c1.7,0,1.7-2.6,0-2.6
			C90,114.2,89.5,114.7,89.5,115.5z"/>
		<path class="st12" d="M93.5,112.7v4H96v0.3h-2.8v-4.4H93.5z"/>
		<path class="st12" d="M98.9,114l-1.9,4.4h-0.3l0.6-1.3l-1.2-3h0.3l0.7,1.8l0.4,0.9l0.3-0.9l0.8-1.8L98.9,114L98.9,114z"/>
		<path class="st12" d="M101.7,114.5c-0.3-0.3-0.6-0.3-1-0.3c-0.5,0-1,0.2-0.9,0.6c0,0.4,0.5,0.5,0.9,0.6c0.5,0.1,1.3,0.2,1.3,0.9
			c0,0.7-0.7,0.9-1.3,0.9c-0.5,0-1.1-0.2-1.3-0.6l0.2-0.2c0.3,0.4,0.7,0.5,1.1,0.5c0.4,0,1-0.1,1-0.6c0-0.5-0.5-0.5-1-0.6
			c-0.6-0.1-1.2-0.2-1.2-0.8s0.6-0.9,1.2-0.9c0.5,0,0.8,0.1,1.1,0.4L101.7,114.5z"/>
		<path class="st12" d="M103.1,113c0,0.3-0.5,0.3-0.5,0S103.1,112.7,103.1,113z M102.6,114v3.1h0.3V114H102.6z"/>
		<path class="st12" d="M105.9,114.5c-0.3-0.3-0.6-0.3-1-0.3c-0.5,0-1,0.2-0.9,0.6c0,0.4,0.5,0.5,0.9,0.6c0.5,0.1,1.3,0.2,1.3,0.9
			c0,0.7-0.7,0.9-1.3,0.9c-0.5,0-1.1-0.2-1.3-0.6l0.2-0.2c0.3,0.4,0.7,0.5,1.1,0.5c0.4,0,1-0.1,1-0.6c0-0.5-0.5-0.5-1-0.6
			c-0.6-0.1-1.2-0.2-1.2-0.8s0.6-0.9,1.2-0.9c0.5,0,0.8,0.1,1.1,0.4L105.9,114.5z"/>
		<path class="st12" d="M109.9,113h-1.6v-0.3h3.5v0.3h-1.6v4.1h-0.3L109.9,113L109.9,113z"/>
		<path class="st12" d="M111.5,115.5c0-1,0.7-1.6,1.6-1.6s1.6,0.6,1.6,1.6s-0.7,1.6-1.6,1.6S111.5,116.5,111.5,115.5z M114.3,115.5
			c0-0.8-0.6-1.3-1.3-1.3c-0.7,0-1.3,0.5-1.3,1.3s0.6,1.3,1.3,1.3C113.7,116.8,114.3,116.3,114.3,115.5z"/>
		<path class="st12" d="M115.2,115.5c0-1,0.7-1.6,1.6-1.6s1.6,0.6,1.6,1.6s-0.7,1.6-1.6,1.6C115.9,117.1,115.2,116.5,115.2,115.5z
			 M118,115.5c0-0.8-0.6-1.3-1.3-1.3c-0.7,0-1.3,0.5-1.3,1.3s0.6,1.3,1.3,1.3S118,116.3,118,115.5z"/>
		<path class="st12" d="M119.3,112.7v4.4H119v-4.4H119.3z"/>
		<path class="st12" d="M120.5,112.7v2c0.3-0.5,0.8-0.7,1.3-0.7c0.9,0,1.6,0.6,1.6,1.6c0,1-0.7,1.6-1.5,1.6c-0.5,0-1-0.3-1.3-0.7
			v0.7h-0.3v-4.4L120.5,112.7L120.5,112.7z M120.5,115.5c0,0.8,0.5,1.3,1.3,1.3c0.7,0,1.3-0.4,1.3-1.3c0-0.9-0.6-1.3-1.3-1.3
			C121,114.2,120.5,114.7,120.5,115.5z"/>
		<path class="st12" d="M123.9,115.5c0-1,0.7-1.6,1.6-1.6s1.6,0.6,1.6,1.6s-0.7,1.6-1.6,1.6C124.6,117.1,123.9,116.5,123.9,115.5z
			 M126.7,115.5c0-0.8-0.6-1.3-1.3-1.3c-0.7,0-1.3,0.5-1.3,1.3s0.6,1.3,1.3,1.3C126.1,116.8,126.7,116.3,126.7,115.5z"/>
		<path class="st12" d="M128.8,115.2l0.9-1.3h0.4v0l-1.1,1.5l1.2,1.6v0h-0.4l-1-1.4l-1,1.4h-0.4v0l1.2-1.6l-1.1-1.5v0h0.4
			L128.8,115.2z"/>
	</g>
	<g>
		<path class="st13" d="M72.8,94c-0.7-1.1-2.5-2.2-4.7-2.2c-2.8,0-4.1,1.2-4.1,2.6c0,1.7,2,2.2,4.4,2.5c4.1,0.5,8,1.6,8,6.3
			c0,4.4-3.9,6.3-8.3,6.3c-4,0-7.1-1.3-8.6-4.9l3.1-1.6c0.9,2.2,3.2,3.1,5.6,3.1c2.3,0,4.5-0.8,4.5-3c0-1.9-1.9-2.6-4.6-2.9
			c-4-0.5-7.8-1.6-7.8-6c0-4.1,4-5.7,7.6-5.8c3.1,0,6.3,0.9,7.8,3.9L72.8,94z"/>
		<path class="st13" d="M93.3,105.3H83l-1.7,3.7h-4l8.9-19.8h4L99,109H95L93.3,105.3z M88.1,93.4l-3.7,8.4h7.3L88.1,93.4z"/>
		<path class="st13" d="M104.7,89.2v16.3h10.2v3.4H101V89.2H104.7z"/>
		<path class="st13" d="M119.7,92.6h-6.3v-3.4c5.7,0,10.5,0,16.3,0v3.4h-6.3V109h-3.7V92.6z"/>
	</g>
	
		<linearGradient id="SVGID_6_" gradientUnits="userSpaceOnUse" x1="-240.4433" y1="-248.6566" x2="-271.7772" y2="-248.6566" gradientTransform="matrix(-1 0 0 1 -223.9278 358.384)">
		<stop  offset="9.852217e-03" style="stop-color:#ABABAB"/>
		<stop  offset="0.5093" style="stop-color:#868686"/>
		<stop  offset="0.5874" style="stop-color:#747474"/>
		<stop  offset="0.7793" style="stop-color:#515151"/>
		<stop  offset="0.9225" style="stop-color:#3D3D3D"/>
		<stop  offset="1" style="stop-color:#363636"/>
	</linearGradient>
	<path class="st14" d="M1.9,116.2c2.9,1.5,6.3,2.8,10,3.7c15.6,4,31.3,0.5,35.1-7.8c2.2-4.7,0-9.9-5.1-14.3c0.3,2.5-0.1,5-1.2,7.4
		c-4.8,10.3-21.4,14.1-37,10.2C3.8,115.4,1.9,116.2,1.9,116.2z"/>
	<g>
		<path class="st13" d="M69.9,73c-0.5-0.9-2-1.7-3.6-1.7c-2.1,0-3.2,0.9-3.2,2.1c0,1.4,1.6,1.7,3.4,1.9c3.2,0.4,6.2,1.2,6.2,4.9
			c0,3.5-3,4.9-6.4,4.9c-3.1,0-5.6-1-6.7-3.8l2.4-1.3c0.7,1.7,2.5,2.5,4.3,2.5c1.8,0,3.5-0.6,3.5-2.3c0-1.5-1.5-2.1-3.5-2.3
			c-3.1-0.4-6-1.2-6-4.7c0-3.2,3.1-4.5,5.9-4.5c2.4,0,4.9,0.7,6,3.1L69.9,73z"/>
		<path class="st13" d="M77.7,69.3v15.5H75V69.3H77.7z"/>
		<path class="st13" d="M82.9,70.7c0,2.1-3.2,2.1-3.2,0C79.7,68.6,82.9,68.6,82.9,70.7z M80,73.8v11h2.7v-11H80z"/>
		<path class="st13" d="M94.3,83.3c-1.3,1.2-2.6,1.7-4.2,1.7c-3.1,0-5.7-1.9-5.7-5.8s2.6-5.8,5.7-5.8c1.5,0,2.7,0.4,3.9,1.6
			l-1.7,1.8c-0.6-0.6-1.4-0.9-2.2-0.9c-1.8,0-3.1,1.3-3.1,3.2c0,2.1,1.4,3.2,3.1,3.2c0.9,0,1.7-0.2,2.4-0.9L94.3,83.3z"/>
		<path class="st13" d="M98.2,80.2c0.2,1.4,1.3,2.3,3.2,2.3c1,0,2.3-0.4,2.9-1l1.7,1.7c-1.1,1.2-3,1.8-4.6,1.8
			c-3.7,0-5.9-2.3-5.9-5.8c0-3.3,2.2-5.7,5.7-5.7c3.6,0,5.9,2.3,5.5,6.8L98.2,80.2L98.2,80.2z M104.1,78c-0.2-1.4-1.3-2.1-2.8-2.1
			c-1.4,0-2.6,0.7-3,2.1H104.1z"/>
		<path class="st13" d="M111.2,73.8l0.2,1.3c0.8-1.4,1.9-1.6,3-1.6c1.1,0,2.2,0.5,2.8,1l-1.2,2.4c-0.5-0.5-1.1-0.7-1.9-0.7
			c-1.4,0-2.7,0.8-2.7,2.8v5.7h-2.7V73.8H111.2z"/>
	</g>
	<path class="st15" d="M38.7,125"/>
	<path class="st16" d="M2.4,116.5c0.2-0.1,0.4-0.1,0.6-0.2c0.2,0.1,0.4,0.2,0.7,0.3c-0.2,0.1-0.4,0.2-0.6,0.3c0,0,0,0,0,0
		c0.2-0.1,0.4-0.2,0.6-0.3c0.2,0.1,0.5,0.2,0.8,0.3c-0.2,0.1-0.5,0.2-0.7,0.3c0,0,0,0,0,0c0.2-0.1,0.5-0.2,0.7-0.3
		c0.3,0.1,0.5,0.2,0.8,0.3c-0.2,0.1-0.5,0.2-0.8,0.3c0,0,0,0,0,0c0.3-0.1,0.5-0.2,0.8-0.3c0.3,0.1,0.6,0.2,0.9,0.3
		c-0.3,0.1-0.6,0.2-0.9,0.4c0,0,0,0,0,0c0.3-0.1,0.6-0.2,0.9-0.4c0.4,0.1,0.8,0.3,1.2,0.4c-0.3,0.2-0.6,0.3-0.9,0.4c0,0,0,0,0,0
		c0.3-0.2,0.6-0.3,0.9-0.4c0.4,0.1,0.8,0.2,1.3,0.4c-0.3,0.2-0.6,0.3-0.9,0.5c0,0,0,0,0,0c0.3-0.2,0.6-0.3,0.9-0.5
		c0.4,0.1,0.9,0.2,1.4,0.4c-0.3,0.2-0.5,0.4-0.8,0.6c0,0,0,0,0,0c0.3-0.2,0.6-0.4,0.8-0.6c0.5,0.1,1,0.3,1.5,0.4
		c-0.2,0.2-0.5,0.5-0.8,0.7c0,0,0,0,0,0c0.3-0.2,0.6-0.5,0.8-0.7c0.5,0.1,0.9,0.2,1.4,0.3c0.1,0,0.2,0,0.3,0.1
		c-0.2,0.3-0.4,0.5-0.6,0.8c0,0,0,0,0,0c0.2-0.3,0.4-0.5,0.6-0.8c0.5,0.1,1.1,0.2,1.6,0.3c-0.2,0.3-0.3,0.6-0.5,0.9h0
		c0.2-0.3,0.3-0.6,0.5-0.9c0.6,0.1,1.2,0.2,1.8,0.3c-0.1,0.3-0.2,0.6-0.4,0.9h0c0.2-0.3,0.3-0.6,0.4-0.9c0.6,0.1,1.2,0.2,1.8,0.2
		c-0.1,0.3-0.2,0.6-0.3,1h0c0.1-0.3,0.2-0.7,0.3-1c0.6,0.1,1.3,0.1,1.9,0.2c-0.1,0.3-0.2,0.7-0.3,1h0c0.1-0.4,0.2-0.7,0.3-1
		c0.7,0,1.4,0.1,2.1,0.1c0,0.3-0.1,0.7-0.2,1.1h0c0.1-0.4,0.1-0.8,0.2-1.1c0.1,0,0.2,0,0.4,0c0.2,0,0.3,0,0.4,0c0.4,0,0.8,0,1.2,0
		c0,0.4,0,0.8-0.1,1.2h0c0-0.4,0.1-0.8,0.1-1.2c0.6,0,1.3-0.1,1.9-0.1c0,0.4,0,0.8-0.1,1.2h0c0-0.4,0.1-0.8,0.1-1.2
		c0.7-0.1,1.4-0.2,2-0.3c0,0.4,0,0.9-0.1,1.3h0c0-0.5,0.1-0.9,0.1-1.3c0.7-0.1,1.4-0.3,2.1-0.4c0,0.5,0,0.9-0.1,1.4h0
		c0-0.5,0.1-1,0.1-1.4c0.8-0.2,1.6-0.4,2.3-0.6c0,0.5-0.1,1-0.2,1.6h0c0.1-0.6,0.1-1.1,0.2-1.6c0.5-0.2,0.9-0.3,1.3-0.5
		c0.4-0.2,0.8-0.3,1.2-0.5c0,0.6-0.1,1.3-0.1,2h0c0.1-0.7,0.1-1.4,0.1-2c0.9-0.4,1.7-0.9,2.6-1.4c0,0.7,0,1.5-0.2,2.4h0
		c0.1-0.9,0.2-1.7,0.2-2.5c0.9-0.5,1.7-1.1,2.5-1.8c0.1,0.9,0.1,1.8,0,2.9h0c0.1-1.1,0.1-2,0-2.9c0.9-0.7,1.7-1.6,2.5-2.4
		c0.1,1,0.1,2.2-0.1,3.5h0c0.2-1.2,0.3-2.4,0.1-3.5c0.7-0.8,1.3-1.6,1.9-2.5c0.2,0.9,0.2,1.8,0.2,2.7h0c0.1-1,0-1.9-0.2-2.7
		c0.7-1.1,1.4-2.2,2-3.5c0,0,0,0,0,0c-0.6,1.2-1.3,2.4-2,3.5c-0.2-1-0.5-2-0.8-2.8c0.6-1.2,1.2-2.4,1.6-3.7c0,0,0,0,0,0
		c-0.5,1.3-1,2.6-1.6,3.7c-0.3-0.6-0.5-1.2-0.8-1.6c-0.2-0.3-0.4-0.6-0.5-0.9c0.5-1.2,0.9-2.4,1.2-3.7l0,0c-0.3,1.3-0.7,2.6-1.2,3.7
		c-0.8-1.3-1.6-2.1-1.6-2.1h0v0c0.1,0.1,0.8,0.9,1.6,2.1c-0.5,1.1-1,2.2-1.6,3.2c-0.7-1-1.3-1.5-1.3-1.5v0c0,0,0,0,0,0
		c0,0,0.6,0.5,1.3,1.5c-0.6,0.9-1.2,1.8-1.9,2.6c-0.5-1.1-1-1.7-1-1.7l0,0c0,0,0.5,0.6,1,1.7c-0.6,0.7-1.3,1.4-2,2
		c-0.5-1.2-1-1.7-1-1.7l0,0l0,0c0,0,0.5,0.5,1,1.7c-0.7,0.6-1.5,1.2-2.3,1.7c0,0,0,0,0,0c-0.3-1.2-0.8-1.7-0.8-1.8l0,0l0,0
		c0,0,0.4,0.5,0.8,1.8c0,0,0,0,0,0.1c-0.3,0.2-0.5,0.3-0.8,0.5c-0.5,0.3-1,0.6-1.6,0.8c0,0,0,0,0-0.1c-0.3-1.2-0.6-1.8-0.6-1.8l0,0
		c0,0,0.4,0.6,0.6,1.8c-0.7,0.3-1.5,0.6-2.2,0.9c-0.2-1.3-0.5-1.8-0.5-1.8l0,0l0,0c0,0,0.3,0.5,0.5,1.8c-0.7,0.3-1.4,0.5-2.2,0.6
		c-0.2-1.1-0.4-1.7-0.4-1.7l0,0c0,0,0.2,0.6,0.4,1.7c-0.7,0.2-1.3,0.3-2,0.5c-0.2-1-0.4-1.5-0.4-1.5h0l0,0c0,0,0.2,0.5,0.4,1.5
		c-0.6,0.1-1.3,0.2-1.9,0.3c-0.1-0.7-0.3-1.2-0.4-1.4h0c0.1,0.2,0.2,0.7,0.4,1.4c-0.6,0.1-1.2,0.2-1.8,0.2c-0.1-0.6-0.2-1.1-0.2-1.3
		h0c0.1,0.2,0.2,0.6,0.2,1.3c-0.6,0-1.2,0.1-1.8,0.1c0-0.5,0-0.9-0.1-1.2h0c0,0.3,0.1,0.7,0.1,1.2c-0.6,0-1.2,0-1.7,0
		c0-0.4,0-0.8,0-1.1h0c0,0.3,0,0.6,0,1.1c-0.6,0-1.1,0-1.6,0c0.1-0.4,0.1-0.7,0.1-1h0c0,0.3-0.1,0.6-0.1,1c-0.5,0-1,0-1.6-0.1
		c0.1-0.3,0.2-0.6,0.3-0.8h0c-0.1,0.2-0.2,0.5-0.3,0.8c-0.5,0-1-0.1-1.4-0.1c0.1-0.3,0.2-0.5,0.3-0.7c0,0,0,0,0,0
		c-0.1,0.2-0.2,0.5-0.3,0.7c0,0-0.1,0-0.1,0c-0.4,0-0.8-0.1-1.2-0.1c0.2-0.2,0.3-0.5,0.5-0.6c0,0,0,0,0,0c-0.1,0.2-0.3,0.4-0.5,0.6
		c-0.5-0.1-1-0.1-1.4-0.2c0.2-0.2,0.3-0.4,0.5-0.5c0,0,0,0,0,0c-0.1,0.2-0.3,0.3-0.5,0.5c-0.4-0.1-0.8-0.1-1.2-0.2
		c0.2-0.2,0.3-0.3,0.5-0.5c0,0,0,0,0,0c-0.2,0.1-0.3,0.3-0.5,0.5c-0.4-0.1-0.8-0.2-1.2-0.2c0.2-0.1,0.3-0.3,0.5-0.4c0,0,0,0,0,0
		c-0.2,0.1-0.3,0.2-0.5,0.4c-0.4-0.1-0.8-0.2-1.2-0.2c0.2-0.1,0.3-0.2,0.5-0.3c0,0,0,0,0,0c-0.2,0.1-0.3,0.2-0.5,0.3
		c-0.3-0.1-0.7-0.2-1-0.2c0.2-0.1,0.3-0.2,0.4-0.3c0,0,0,0,0,0c-0.1,0.1-0.3,0.2-0.4,0.3c-0.3-0.1-0.6-0.2-0.9-0.2
		c0.1-0.1,0.3-0.2,0.4-0.2c0,0,0,0,0,0c-0.1,0.1-0.2,0.2-0.4,0.2c-0.3-0.1-0.6-0.2-0.9-0.2c0.1-0.1,0.2-0.1,0.3-0.2c0,0,0,0,0,0
		c-0.1,0.1-0.2,0.1-0.3,0.2c-0.3-0.1-0.5-0.1-0.7-0.2c0.1-0.1,0.2-0.1,0.3-0.2c0,0,0,0,0,0c-0.1,0.1-0.2,0.1-0.3,0.2
		c-0.3-0.1-0.6-0.2-0.7-0.2c0,0,0,0,0,0c0.1,0,0.3,0.1,0.7,0.2c-0.2,0.1-0.4,0.2-0.6,0.3c-0.3-0.1-0.6-0.2-0.6-0.2c0,0,0,0,0,0
		c0.1,0,0.3,0.1,0.6,0.2c-0.2,0.1-0.3,0.1-0.5,0.2c-0.3-0.1-0.5-0.2-0.6-0.2h0v0c0,0,0.2,0.1,0.6,0.2C2.8,116.4,2.7,116.4,2.4,116.5
		C2.4,116.5,2.4,116.5,2.4,116.5z M4.6,116.8c-0.3-0.1-0.5-0.2-0.8-0.3c0.2-0.1,0.3-0.2,0.5-0.2c0.3,0.1,0.5,0.2,0.8,0.3
		C5,116.7,4.8,116.8,4.6,116.8z M5.4,117.1c-0.3-0.1-0.6-0.2-0.8-0.3c0.2-0.1,0.4-0.2,0.6-0.3c0.3,0.1,0.6,0.2,0.9,0.3
		C5.9,116.9,5.7,117,5.4,117.1z M6.3,117.5c-0.3-0.1-0.6-0.2-0.9-0.3c0.2-0.1,0.4-0.2,0.6-0.3c0.3,0.1,0.6,0.2,1,0.3
		C6.8,117.2,6.6,117.3,6.3,117.5z M7.6,117.9c-0.4-0.1-0.8-0.3-1.2-0.4c0.3-0.1,0.5-0.2,0.7-0.3c0.4,0.1,0.8,0.2,1.2,0.3
		C8.1,117.6,7.9,117.7,7.6,117.9z M8.9,118.2c-0.4-0.1-0.8-0.2-1.3-0.4c0.3-0.2,0.5-0.3,0.7-0.4c0.4,0.1,0.8,0.2,1.3,0.3
		C9.4,117.9,9.2,118.1,8.9,118.2z M10.3,118.6c-0.5-0.1-0.9-0.2-1.3-0.4c0.3-0.2,0.5-0.3,0.7-0.5c0.4,0.1,0.9,0.2,1.3,0.3
		C10.8,118.2,10.5,118.4,10.3,118.6z M11.8,119c-0.5-0.1-1-0.2-1.5-0.4c0.3-0.2,0.5-0.4,0.7-0.6c0.5,0.1,1,0.2,1.5,0.3
		C12.3,118.5,12.1,118.7,11.8,119z M13.6,119.4c-0.1,0-0.2,0-0.3-0.1c-0.5-0.1-0.9-0.2-1.4-0.3c0.3-0.2,0.5-0.5,0.7-0.7
		c0.5,0.1,1,0.2,1.5,0.2C13.9,118.8,13.8,119.1,13.6,119.4z M15.2,119.7c-0.5-0.1-1.1-0.2-1.6-0.3c0.2-0.3,0.4-0.6,0.5-0.8
		c0,0,0.1,0,0.1,0c0.5,0.1,1,0.1,1.4,0.2C15.5,119,15.3,119.3,15.2,119.7z M17,120c-0.6-0.1-1.2-0.2-1.8-0.3
		c0.2-0.3,0.3-0.6,0.5-0.9c0.6,0.1,1.1,0.1,1.7,0.2C17.2,119.2,17.1,119.6,17,120z M18.8,120.1c-0.6-0.1-1.2-0.1-1.8-0.2
		c0.1-0.4,0.2-0.7,0.3-1c0.6,0,1.1,0.1,1.7,0.1C19,119.4,18.9,119.8,18.8,120.1z M20.7,120.3c-0.6,0-1.3-0.1-1.9-0.2
		c0.1-0.4,0.2-0.8,0.3-1.1c0.6,0,1.2,0,1.8,0.1C20.9,119.5,20.8,119.9,20.7,120.3z M22.9,120.4c-0.7,0-1.4,0-2.1-0.1
		c0.1-0.4,0.2-0.8,0.2-1.2c0.1,0,0.3,0,0.4,0c0.5,0,1,0,1.5,0C22.9,119.5,22.9,119.9,22.9,120.4z M24.9,120.3c-0.7,0-1.4,0-2,0
		c0-0.5,0.1-0.9,0.1-1.3c0.6,0,1.3-0.1,1.9-0.1l0,0C24.9,119.4,24.9,119.8,24.9,120.3z M26.9,120.2c-0.6,0.1-1.3,0.1-1.9,0.1
		c0-0.5,0-1,0-1.4c0.6-0.1,1.3-0.1,1.9-0.2C26.9,119.2,26.9,119.7,26.9,120.2z M28.9,120c-0.7,0.1-1.3,0.2-2,0.3c0-0.5,0-1,0-1.5
		c0.7-0.1,1.4-0.2,2-0.3C28.9,118.9,28.9,119.4,28.9,120z M31.1,119.5c-0.7,0.2-1.4,0.3-2.1,0.4c0-0.6,0-1.1,0-1.6
		c0.7-0.2,1.4-0.3,2.1-0.5C31.1,118.3,31.1,118.9,31.1,119.5z M33.4,118.9c-0.8,0.3-1.6,0.5-2.3,0.6c0-0.6,0-1.2,0-1.7
		c0.8-0.2,1.6-0.5,2.3-0.8C33.4,117.6,33.5,118.2,33.4,118.9z M36,117.9c-0.4,0.2-0.8,0.4-1.3,0.5c-0.4,0.2-0.9,0.3-1.3,0.5
		c0-0.7,0-1.3,0-1.8c0.8-0.3,1.6-0.7,2.3-1c0.1,0,0.2-0.1,0.2-0.1C36,116.4,36,117.1,36,117.9z M36,117.8c0-0.8,0-1.4-0.1-2
		c0.9-0.5,1.7-1,2.5-1.6c0.1,0.6,0.2,1.4,0.2,2.2C37.8,117,36.9,117.4,36,117.8z M38.6,116.5c0-0.8-0.1-1.6-0.2-2.2
		c0.8-0.6,1.5-1.2,2.2-1.9c0.2,0.7,0.3,1.4,0.4,2.3C40.3,115.3,39.5,115.9,38.6,116.5z M41.1,114.6c-0.1-0.9-0.2-1.6-0.4-2.3
		c0.8-0.8,1.6-1.7,2.3-2.7c0.3,0.7,0.5,1.6,0.7,2.5C42.9,113.1,42.1,113.9,41.1,114.6z M45.6,109.7c-0.6,0.9-1.2,1.7-1.9,2.5
		c0-0.2-0.1-0.4-0.1-0.6c-0.1-0.6-0.3-1.3-0.6-1.9c0.6-0.9,1.2-1.8,1.7-2.8C45.1,107.7,45.4,108.7,45.6,109.7z M43.4,104.2
		c0.2,0.3,0.4,0.6,0.5,0.9c0.3,0.5,0.5,1,0.8,1.7c-0.5,1-1.1,1.9-1.7,2.8c-0.2-0.4-0.3-0.7-0.5-1.1c-0.2-0.4-0.4-0.7-0.6-1
		C42.4,106.5,43,105.4,43.4,104.2z M41.8,107.5c0.2,0.3,0.4,0.6,0.6,1c0.2,0.3,0.4,0.7,0.5,1.1c-0.7,1-1.5,1.8-2.3,2.6
		c-0.2-0.6-0.3-1-0.5-1.4c-0.1-0.3-0.2-0.5-0.3-0.7C40.6,109.3,41.3,108.4,41.8,107.5z M39.9,110.1c0.1,0.2,0.2,0.5,0.3,0.7
		c0.2,0.4,0.3,0.9,0.5,1.5c-0.7,0.7-1.4,1.3-2.2,1.9c-0.1-0.8-0.3-1.5-0.5-1.9c0,0,0-0.1,0-0.1C38.6,111.5,39.3,110.9,39.9,110.1z
		 M37.9,112.2c0,0,0,0.1,0,0.1c0.2,0.5,0.3,1.1,0.5,2c-0.8,0.6-1.6,1.1-2.5,1.6c-0.1-0.8-0.2-1.4-0.3-1.9
		C36.4,113.4,37.2,112.8,37.9,112.2z M34.8,114.4c0.3-0.2,0.5-0.3,0.8-0.5c0.1,0.5,0.3,1.1,0.3,1.9c-0.1,0-0.2,0.1-0.2,0.1
		c-0.7,0.4-1.5,0.7-2.3,1c0-0.7-0.1-1.3-0.2-1.7C33.7,115,34.3,114.7,34.8,114.4z M33.2,115.2c0.1,0.5,0.2,1.1,0.2,1.7
		c-0.8,0.3-1.5,0.6-2.3,0.8c0-0.6-0.1-1.2-0.2-1.6C31.7,115.9,32.4,115.6,33.2,115.2z M30.9,116.2c0.1,0.4,0.1,1,0.2,1.6
		c-0.7,0.2-1.4,0.4-2.1,0.5c0-0.6-0.1-1.1-0.2-1.5C29.5,116.6,30.2,116.4,30.9,116.2z M28.7,116.8c0.1,0.4,0.1,0.9,0.2,1.5
		c-0.7,0.1-1.3,0.3-2,0.3c0-0.5-0.1-1-0.2-1.4C27.4,117.2,28.1,117,28.7,116.8z M26.7,117.3c0.1,0.4,0.1,0.9,0.2,1.4
		c-0.6,0.1-1.3,0.2-1.9,0.2c0-0.5-0.1-0.9-0.2-1.3C25.4,117.5,26,117.4,26.7,117.3z M24.6,117.6C24.6,117.6,24.7,117.6,24.6,117.6
		c0.2,0.3,0.2,0.8,0.3,1.3c-0.6,0.1-1.3,0.1-1.9,0.1c0-0.5,0-0.9-0.1-1.2C23.5,117.7,24,117.7,24.6,117.6z M21,117.9
		c0.6,0,1.2-0.1,1.8-0.1c0,0.3,0.1,0.8,0.1,1.2c-0.6,0-1.3,0-1.9,0C21,118.6,21,118.2,21,117.9z M19.3,117.9c0,0,0.1,0,0.2,0
		c0.5,0,1.1,0,1.6,0c0,0.3,0,0.7-0.1,1.1c-0.6,0-1.2,0-1.8,0C19.2,118.6,19.2,118.3,19.3,117.9z M17.6,117.9c0.6,0,1.1,0,1.6,0
		c0,0.3-0.1,0.7-0.2,1.1c-0.6,0-1.2-0.1-1.7-0.1C17.5,118.5,17.5,118.2,17.6,117.9z M16,117.8c0.5,0,1,0.1,1.6,0.1
		c-0.1,0.3-0.1,0.6-0.2,1c-0.6,0-1.1-0.1-1.7-0.2C15.8,118.4,15.9,118.1,16,117.8z M14.6,117.7c0.5,0,1,0.1,1.4,0.1
		c-0.1,0.3-0.2,0.6-0.4,0.9c-0.5-0.1-1-0.1-1.4-0.2c0,0,0,0-0.1,0C14.3,118.2,14.4,118,14.6,117.7z M13.2,117.6
		c0.4,0,0.8,0.1,1.2,0.1c0,0,0.1,0,0.1,0c-0.1,0.3-0.3,0.5-0.5,0.8c-0.5-0.1-1-0.2-1.5-0.2C12.8,118,13,117.8,13.2,117.6z
		 M11.7,117.4c0.5,0.1,1,0.1,1.4,0.2c-0.2,0.2-0.4,0.5-0.6,0.7c-0.5-0.1-1-0.2-1.5-0.3C11.3,117.8,11.5,117.6,11.7,117.4z
		 M10.4,117.2c0.4,0.1,0.8,0.1,1.3,0.2c-0.2,0.2-0.4,0.4-0.6,0.6c-0.5-0.1-0.9-0.2-1.3-0.3C10,117.5,10.2,117.3,10.4,117.2z
		 M9.1,116.9c0.4,0.1,0.8,0.2,1.2,0.2c-0.2,0.2-0.5,0.4-0.7,0.6c-0.4-0.1-0.8-0.2-1.3-0.3C8.7,117.3,8.9,117.1,9.1,116.9z
		 M7.9,116.7c0.4,0.1,0.8,0.2,1.2,0.2c-0.2,0.2-0.5,0.3-0.7,0.5c-0.4-0.1-0.8-0.2-1.2-0.3C7.4,116.9,7.6,116.8,7.9,116.7z
		 M6.8,116.5c0.3,0.1,0.6,0.2,1,0.2c-0.2,0.1-0.5,0.3-0.7,0.4c-0.3-0.1-0.6-0.2-1-0.3C6.4,116.7,6.6,116.6,6.8,116.5z M5.9,116.2
		c0.3,0.1,0.6,0.1,0.9,0.2c-0.2,0.1-0.4,0.2-0.6,0.4c-0.3-0.1-0.6-0.2-0.9-0.3C5.5,116.5,5.7,116.3,5.9,116.2z M4.9,116
		c0.3,0.1,0.6,0.2,0.9,0.2c-0.2,0.1-0.4,0.2-0.6,0.3c-0.3-0.1-0.6-0.2-0.8-0.3C4.6,116.2,4.7,116.1,4.9,116z M4.2,115.8
		c0.2,0.1,0.4,0.1,0.7,0.2c-0.2,0.1-0.3,0.2-0.5,0.3c-0.3-0.1-0.5-0.2-0.7-0.2C3.8,116,4,115.9,4.2,115.8z M3.6,116.1
		c0.2,0.1,0.5,0.2,0.7,0.2c-0.2,0.1-0.3,0.2-0.5,0.2c-0.3-0.1-0.5-0.2-0.7-0.3C3.2,116.2,3.4,116.1,3.6,116.1z"/>
	<path class="st17" d="M15.7,88.7c0.1,0,0.1,0,0.2,0c16.4,1.3,36.1,12.9,28.9,26.6c0,0,1-0.9,1.5-2.2c6-13.3-13.2-24.5-29.3-25.7
		c-0.1,0-0.1,0-0.2,0l-4.3-5.9c0,0-0.7,1.7-0.8,1.7L15.7,88.7z"/>
	<g>
		<path class="st17" d="M42,97.9c0.1,0.5,0.1,1.1,0.1,1.6c3.8,4,5.3,9.2,3.3,13.3c-2.7,5.8-11.3,8.6-21.5,8.8
			c11,0.2,20.3-3.3,23.1-9.4C49.2,107.4,47.1,102.2,42,97.9z"/>
	</g>
	
		<radialGradient id="SVGID_7_" cx="-361.4904" cy="-546.2999" r="14.6836" gradientTransform="matrix(0.4411 -0.8974 -1.7312 -0.8509 -756.0972 -694.2158)" gradientUnits="userSpaceOnUse">
		<stop  offset="0" style="stop-color:#A3A3A3"/>
		<stop  offset="0.1993" style="stop-color:#A1A1A1"/>
		<stop  offset="0.3942" style="stop-color:#9C9C9C"/>
		<stop  offset="0.5873" style="stop-color:#919191"/>
		<stop  offset="0.7794" style="stop-color:#7E7E7E"/>
		<stop  offset="0.9691" style="stop-color:#6D6D6D"/>
		<stop  offset="1" style="stop-color:#6C6C6C"/>
	</radialGradient>
	<path class="st18" d="M16.8,87.6c0.1,0,0.1,0,0.2,0c16.1,1.3,35.2,12.3,29.3,25.6c-0.5,1-1.1,1.7-1.4,2l0,0c0,0,1.1-0.9,2.4-3.2
		l0,0c4.1-6.7,13.3-27.8-30.5-34.8l-4.2,4.2c0,0,0,0.1,0,0.2L16.8,87.6z"/>
	<path class="st19" d="M48.5,69.1c-0.2,0.1-0.4,0.1-0.6,0.2c-0.2-0.1-0.4-0.2-0.7-0.3c0.2-0.1,0.4-0.2,0.6-0.3c0,0,0,0,0,0
		c-0.2,0.1-0.4,0.2-0.6,0.3c-0.2-0.1-0.5-0.2-0.8-0.3c0.2-0.1,0.5-0.2,0.7-0.3c0,0,0,0,0,0c-0.2,0.1-0.5,0.2-0.7,0.3
		c-0.3-0.1-0.5-0.2-0.8-0.3c0.2-0.1,0.5-0.2,0.8-0.3c0,0,0,0,0,0c-0.3,0.1-0.5,0.2-0.8,0.3c-0.3-0.1-0.6-0.2-0.9-0.3
		c0.3-0.1,0.6-0.2,0.9-0.4c0,0,0,0,0,0c-0.3,0.1-0.6,0.2-0.9,0.4c-0.4-0.1-0.8-0.3-1.2-0.4c0.3-0.2,0.6-0.3,0.9-0.4c0,0,0,0,0,0
		c-0.3,0.2-0.6,0.3-0.9,0.4c-0.4-0.1-0.8-0.2-1.3-0.4c0.3-0.2,0.6-0.3,0.9-0.5c0,0,0,0,0,0c-0.3,0.2-0.6,0.3-0.9,0.5
		c-0.4-0.1-0.9-0.2-1.4-0.4c0.3-0.2,0.5-0.4,0.8-0.6c0,0,0,0,0,0c-0.3,0.2-0.6,0.4-0.8,0.6c-0.5-0.1-1-0.3-1.5-0.4
		c0.2-0.2,0.5-0.5,0.8-0.7c0,0,0,0,0,0c-0.3,0.2-0.6,0.5-0.8,0.7c-0.5-0.1-0.9-0.2-1.4-0.3c-0.1,0-0.2,0-0.3-0.1
		c0.2-0.3,0.4-0.5,0.6-0.8c0,0,0,0,0,0c-0.2,0.3-0.4,0.5-0.6,0.8c-0.5-0.1-1.1-0.2-1.6-0.3c0.2-0.3,0.3-0.6,0.5-0.9h0
		c-0.2,0.3-0.3,0.6-0.5,0.9c-0.6-0.1-1.2-0.2-1.8-0.3c0.1-0.3,0.2-0.6,0.4-0.9h0c-0.2,0.3-0.3,0.6-0.4,0.9c-0.6-0.1-1.2-0.2-1.8-0.2
		c0.1-0.3,0.2-0.6,0.3-1h0c-0.1,0.3-0.2,0.7-0.3,1c-0.6-0.1-1.3-0.1-1.9-0.2c0.1-0.3,0.2-0.7,0.3-1h0c-0.1,0.4-0.2,0.7-0.3,1
		c-0.7,0-1.4-0.1-2.1-0.1c0-0.3,0.1-0.7,0.2-1.1h0c-0.1,0.4-0.1,0.8-0.2,1.1c-0.1,0-0.2,0-0.4,0c-0.2,0-0.3,0-0.4,0
		c-0.4,0-0.8,0-1.2,0c0-0.4,0-0.8,0.1-1.2h0c0,0.4-0.1,0.8-0.1,1.2c-0.6,0-1.3,0.1-1.9,0.1c0-0.4,0-0.8,0.1-1.2h0
		c0,0.4-0.1,0.8-0.1,1.2c-0.7,0.1-1.4,0.2-2,0.3c0-0.4,0-0.9,0.1-1.3h0c0,0.5-0.1,0.9-0.1,1.3c-0.7,0.1-1.4,0.3-2.1,0.4
		c0-0.5,0-0.9,0.1-1.4h0c0,0.5-0.1,1-0.1,1.4c-0.8,0.2-1.6,0.4-2.3,0.6c0-0.5,0.1-1,0.2-1.6h0c-0.1,0.6-0.1,1.1-0.2,1.6
		c-0.5,0.2-0.9,0.3-1.3,0.5c-0.4,0.2-0.8,0.3-1.2,0.5c0-0.6,0.1-1.3,0.1-2h0c-0.1,0.7-0.1,1.4-0.1,2c-0.9,0.4-1.7,0.9-2.6,1.4
		c0-0.7,0-1.5,0.2-2.4h0c-0.1,0.9-0.2,1.7-0.2,2.5c-0.9,0.5-1.7,1.1-2.5,1.8c-0.1-0.9-0.1-1.8,0-2.9h0c-0.1,1.1-0.1,2,0,2.9
		c-0.9,0.7-1.7,1.6-2.5,2.4c-0.1-1-0.1-2.2,0.1-3.5h0c-0.2,1.2-0.3,2.4-0.1,3.5C6.6,74.2,6,75,5.4,75.9c-0.2-0.9-0.2-1.8-0.2-2.7h0
		c-0.1,1,0,1.9,0.2,2.7c-0.7,1.1-1.4,2.2-2,3.5c0,0,0,0,0,0c0.6-1.2,1.3-2.4,2-3.5c0.2,1,0.5,2,0.8,2.8c-0.6,1.2-1.2,2.4-1.6,3.7
		c0,0,0,0,0,0c0.5-1.3,1-2.6,1.6-3.7c0.3,0.6,0.5,1.2,0.8,1.6c0.2,0.3,0.4,0.6,0.5,0.9c-0.5,1.2-0.9,2.4-1.2,3.7l0,0
		c0.3-1.3,0.7-2.6,1.2-3.7c0.8,1.3,1.6,2.1,1.6,2.1h0v0c-0.1-0.1-0.8-0.9-1.6-2.1c0.5-1.1,1-2.2,1.6-3.2c0.7,1,1.3,1.5,1.3,1.5v0
		c0,0,0,0,0,0c0,0-0.6-0.5-1.3-1.5c0.6-0.9,1.2-1.8,1.9-2.6c0.5,1.1,1,1.7,1,1.7l0,0c0,0-0.5-0.6-1-1.7c0.6-0.7,1.3-1.4,2-2
		c0.5,1.2,1,1.7,1,1.7l0,0l0,0c0,0-0.5-0.5-1-1.7c0.7-0.6,1.5-1.2,2.3-1.7c0,0,0,0,0,0c0.3,1.2,0.8,1.7,0.8,1.8l0,0l0,0
		c0,0-0.4-0.5-0.8-1.8c0,0,0,0,0-0.1c0.3-0.2,0.5-0.3,0.8-0.5c0.5-0.3,1-0.6,1.6-0.8c0,0,0,0,0,0.1c0.3,1.2,0.6,1.8,0.6,1.8l0,0
		c0,0-0.4-0.6-0.6-1.8c0.7-0.3,1.5-0.6,2.2-0.9c0.2,1.3,0.5,1.8,0.5,1.8l0,0l0,0c0,0-0.3-0.5-0.5-1.8c0.7-0.3,1.4-0.5,2.2-0.6
		c0.2,1.1,0.4,1.7,0.4,1.7l0,0c0,0-0.2-0.6-0.4-1.7c0.7-0.2,1.3-0.3,2-0.5c0.2,1,0.4,1.5,0.4,1.5h0l0,0c0,0-0.2-0.5-0.4-1.5
		c0.6-0.1,1.3-0.2,1.9-0.3c0.1,0.7,0.3,1.2,0.4,1.4h0c-0.1-0.2-0.2-0.7-0.4-1.4c0.6-0.1,1.2-0.2,1.8-0.2c0.1,0.6,0.2,1.1,0.2,1.3h0
		c-0.1-0.2-0.2-0.6-0.2-1.3c0.6,0,1.2-0.1,1.8-0.1c0,0.5,0,0.9,0.1,1.2h0c0-0.3-0.1-0.7-0.1-1.2c0.6,0,1.2,0,1.7,0
		c0,0.4,0,0.8,0,1.1h0c0-0.3,0-0.6,0-1.1c0.6,0,1.1,0,1.6,0c-0.1,0.4-0.1,0.7-0.1,1h0c0-0.3,0.1-0.6,0.1-1c0.5,0,1,0,1.6,0.1
		c-0.1,0.3-0.2,0.6-0.3,0.8h0c0.1-0.2,0.2-0.5,0.3-0.8c0.5,0,1,0.1,1.4,0.1c-0.1,0.3-0.2,0.5-0.3,0.7c0,0,0,0,0,0
		c0.1-0.2,0.2-0.5,0.3-0.7c0,0,0.1,0,0.1,0c0.4,0,0.8,0.1,1.2,0.1c-0.2,0.2-0.3,0.5-0.5,0.6c0,0,0,0,0,0c0.1-0.2,0.3-0.4,0.5-0.6
		c0.5,0.1,1,0.1,1.4,0.2c-0.2,0.2-0.3,0.4-0.5,0.5c0,0,0,0,0,0c0.1-0.2,0.3-0.3,0.5-0.5c0.4,0.1,0.8,0.1,1.2,0.2
		c-0.2,0.2-0.3,0.3-0.5,0.5c0,0,0,0,0,0c0.2-0.1,0.3-0.3,0.5-0.5c0.4,0.1,0.8,0.2,1.2,0.2c-0.2,0.1-0.3,0.3-0.5,0.4c0,0,0,0,0,0
		c0.2-0.1,0.3-0.2,0.5-0.4c0.4,0.1,0.8,0.2,1.2,0.2c-0.2,0.1-0.3,0.2-0.5,0.3c0,0,0,0,0,0c0.2-0.1,0.3-0.2,0.5-0.3
		c0.3,0.1,0.7,0.2,1,0.2c-0.2,0.1-0.3,0.2-0.4,0.3c0,0,0,0,0,0c0.1-0.1,0.3-0.2,0.4-0.3c0.3,0.1,0.6,0.2,0.9,0.2
		c-0.1,0.1-0.3,0.2-0.4,0.2c0,0,0,0,0,0c0.1-0.1,0.2-0.2,0.4-0.2c0.3,0.1,0.6,0.2,0.9,0.2c-0.1,0.1-0.2,0.1-0.3,0.2c0,0,0,0,0,0
		c0.1-0.1,0.2-0.1,0.3-0.2c0.3,0.1,0.5,0.1,0.7,0.2c-0.1,0.1-0.2,0.1-0.3,0.2c0,0,0,0,0,0c0.1-0.1,0.2-0.1,0.3-0.2
		c0.3,0.1,0.6,0.2,0.7,0.2c0,0,0,0,0,0c-0.1,0-0.3-0.1-0.7-0.2c0.2-0.1,0.4-0.2,0.6-0.3c0.3,0.1,0.6,0.2,0.6,0.2c0,0,0,0,0,0
		c-0.1,0-0.3-0.1-0.6-0.2c0.2-0.1,0.3-0.1,0.5-0.2c0.3,0.1,0.5,0.2,0.6,0.2h0v0c0,0-0.2-0.1-0.6-0.2C48.1,69.2,48.3,69.1,48.5,69.1
		C48.5,69.1,48.5,69.1,48.5,69.1z M46.4,68.7c0.3,0.1,0.5,0.2,0.8,0.3c-0.2,0.1-0.3,0.2-0.5,0.2c-0.3-0.1-0.5-0.2-0.8-0.3
		C46,68.9,46.2,68.8,46.4,68.7z M45.5,68.4c0.3,0.1,0.6,0.2,0.8,0.3c-0.2,0.1-0.4,0.2-0.6,0.3c-0.3-0.1-0.6-0.2-0.9-0.3
		C45.1,68.7,45.3,68.5,45.5,68.4z M44.6,68.1c0.3,0.1,0.6,0.2,0.9,0.3c-0.2,0.1-0.4,0.2-0.6,0.3c-0.3-0.1-0.6-0.2-1-0.3
		C44.1,68.3,44.3,68.2,44.6,68.1z M43.3,67.7c0.4,0.1,0.8,0.3,1.2,0.4c-0.3,0.1-0.5,0.2-0.7,0.3c-0.4-0.1-0.8-0.2-1.2-0.3
		C42.9,68,43.1,67.9,43.3,67.7z M42.1,67.4c0.4,0.1,0.8,0.2,1.3,0.4c-0.3,0.2-0.5,0.3-0.7,0.4c-0.4-0.1-0.8-0.2-1.3-0.3
		C41.6,67.7,41.8,67.5,42.1,67.4z M40.7,67c0.5,0.1,0.9,0.2,1.3,0.4c-0.3,0.2-0.5,0.3-0.7,0.5c-0.4-0.1-0.9-0.2-1.3-0.3
		C40.2,67.4,40.4,67.2,40.7,67z M39.1,66.6c0.5,0.1,1,0.2,1.5,0.4c-0.3,0.2-0.5,0.4-0.7,0.6c-0.5-0.1-1-0.2-1.5-0.3
		C38.7,67.1,38.9,66.8,39.1,66.6z M37.4,66.2c0.1,0,0.2,0,0.3,0.1c0.5,0.1,0.9,0.2,1.4,0.3c-0.3,0.2-0.5,0.5-0.7,0.7
		c-0.5-0.1-1-0.2-1.5-0.2C37,66.8,37.2,66.5,37.4,66.2z M35.8,65.9c0.5,0.1,1.1,0.2,1.6,0.3c-0.2,0.3-0.4,0.6-0.5,0.8
		c0,0-0.1,0-0.1,0c-0.5-0.1-1-0.1-1.4-0.2C35.5,66.5,35.6,66.2,35.8,65.9z M34,65.6c0.6,0.1,1.2,0.2,1.8,0.3
		c-0.2,0.3-0.3,0.6-0.5,0.9c-0.6-0.1-1.1-0.1-1.7-0.2C33.7,66.3,33.8,66,34,65.6z M32.1,65.4c0.6,0.1,1.2,0.1,1.8,0.2
		c-0.1,0.4-0.2,0.7-0.3,1c-0.6,0-1.1-0.1-1.7-0.1C31.9,66.2,32,65.8,32.1,65.4z M30.2,65.3c0.6,0,1.3,0.1,1.9,0.2
		c-0.1,0.4-0.2,0.8-0.3,1.1c-0.6,0-1.2,0-1.8-0.1C30.1,66.1,30.1,65.7,30.2,65.3z M28.1,65.2c0.7,0,1.4,0,2.1,0.1
		c-0.1,0.4-0.2,0.8-0.2,1.2c-0.1,0-0.3,0-0.4,0c-0.5,0-1,0-1.5,0C28,66.1,28.1,65.7,28.1,65.2z M26,65.2c0.7,0,1.4,0,2,0
		c0,0.5-0.1,0.9-0.1,1.3c-0.6,0-1.3,0.1-1.9,0.1l0,0C26,66.2,26,65.8,26,65.2z M24.1,65.4c0.6-0.1,1.3-0.1,1.9-0.1c0,0.5,0,1,0,1.4
		c-0.6,0.1-1.3,0.1-1.9,0.2C24.1,66.4,24.1,65.9,24.1,65.4z M22.1,65.6c0.7-0.1,1.3-0.2,2-0.3c0,0.5,0,1,0,1.5
		c-0.7,0.1-1.4,0.2-2,0.3C22.1,66.7,22,66.2,22.1,65.6z M19.9,66.1c0.7-0.2,1.4-0.3,2.1-0.4c0,0.6,0,1.1,0,1.6
		c-0.7,0.2-1.4,0.3-2.1,0.5C19.9,67.2,19.9,66.7,19.9,66.1z M17.5,66.7c0.8-0.3,1.6-0.5,2.3-0.6c0,0.6,0,1.2,0,1.7
		c-0.8,0.2-1.6,0.5-2.3,0.8C17.5,68,17.5,67.4,17.5,66.7z M15,67.7c0.4-0.2,0.8-0.4,1.3-0.5c0.4-0.2,0.9-0.3,1.3-0.5
		c0,0.7,0,1.3,0,1.8c-0.8,0.3-1.6,0.7-2.3,1c-0.1,0-0.2,0.1-0.2,0.1C15,69.1,14.9,68.5,15,67.7z M14.9,67.7c0,0.8,0,1.4,0.1,2
		c-0.9,0.5-1.7,1-2.5,1.6c-0.1-0.6-0.2-1.4-0.2-2.2C13.2,68.6,14,68.2,14.9,67.7z M12.3,69.1c0,0.8,0.1,1.6,0.2,2.2
		c-0.8,0.6-1.5,1.2-2.2,1.9c-0.2-0.7-0.3-1.4-0.4-2.3C10.6,70.3,11.4,69.7,12.3,69.1z M9.8,71c0.1,0.9,0.2,1.6,0.4,2.3
		c-0.8,0.8-1.6,1.7-2.3,2.7c-0.3-0.7-0.5-1.6-0.7-2.5C8.1,72.5,8.9,71.7,9.8,71z M5.3,75.9c0.6-0.9,1.2-1.7,1.9-2.5
		c0,0.2,0.1,0.4,0.1,0.6c0.1,0.6,0.3,1.3,0.6,1.9c-0.6,0.9-1.2,1.8-1.7,2.8C5.8,77.9,5.5,76.9,5.3,75.9z M7.5,81.3
		C7.3,81,7.1,80.7,7,80.4c-0.3-0.5-0.5-1-0.8-1.7c0.5-1,1.1-1.9,1.7-2.8c0.2,0.4,0.3,0.7,0.5,1.1c0.2,0.4,0.4,0.7,0.6,1
		C8.5,79.1,8,80.2,7.5,81.3z M9.1,78.1c-0.2-0.3-0.4-0.6-0.6-1c-0.2-0.3-0.4-0.7-0.5-1.1c0.7-1,1.5-1.8,2.3-2.6
		c0.2,0.6,0.3,1,0.5,1.4c0.1,0.3,0.2,0.5,0.3,0.7C10.3,76.3,9.7,77.1,9.1,78.1z M11,75.4c-0.1-0.2-0.2-0.5-0.3-0.7
		c-0.2-0.4-0.3-0.9-0.5-1.5c0.7-0.7,1.4-1.3,2.2-1.9c0.1,0.8,0.3,1.5,0.5,1.9c0,0,0,0.1,0,0.1C12.3,74.1,11.6,74.7,11,75.4z
		 M13,73.4c0,0,0-0.1,0-0.1c-0.2-0.5-0.3-1.1-0.5-2c0.8-0.6,1.6-1.1,2.5-1.6c0.1,0.8,0.2,1.4,0.3,1.9C14.5,72.2,13.8,72.8,13,73.4z
		 M16.2,71.2c-0.3,0.2-0.5,0.3-0.8,0.5c-0.1-0.5-0.3-1.1-0.3-1.9c0.1,0,0.2-0.1,0.2-0.1c0.7-0.4,1.5-0.7,2.3-1
		c0,0.7,0.1,1.3,0.2,1.7C17.2,70.6,16.7,70.9,16.2,71.2z M17.8,70.3c-0.1-0.5-0.2-1.1-0.2-1.7c0.8-0.3,1.5-0.6,2.3-0.8
		c0,0.6,0.1,1.2,0.2,1.6C19.2,69.7,18.5,70,17.8,70.3z M20.1,69.4c-0.1-0.4-0.1-1-0.2-1.6c0.7-0.2,1.4-0.4,2.1-0.5
		c0,0.6,0.1,1.1,0.2,1.5C21.5,68.9,20.8,69.2,20.1,69.4z M22.2,68.7c-0.1-0.4-0.1-0.9-0.2-1.5c0.7-0.1,1.3-0.3,2-0.3
		c0,0.5,0.1,1,0.2,1.4C23.6,68.4,22.9,68.6,22.2,68.7z M24.3,68.3c-0.1-0.4-0.1-0.9-0.2-1.4c0.6-0.1,1.3-0.2,1.9-0.2
		c0,0.5,0.1,0.9,0.2,1.3C25.6,68,24.9,68.2,24.3,68.3z M26.3,68C26.3,68,26.3,68,26.3,68c-0.2-0.3-0.2-0.8-0.3-1.3
		c0.6-0.1,1.3-0.1,1.9-0.1c0,0.5,0,0.9,0.1,1.2C27.5,67.8,26.9,67.9,26.3,68z M29.9,67.7c-0.6,0-1.2,0.1-1.8,0.1
		c0-0.3-0.1-0.8-0.1-1.2c0.6,0,1.3,0,1.9,0C29.9,66.9,29.9,67.3,29.9,67.7z M31.7,67.6c0,0-0.1,0-0.2,0c-0.5,0-1.1,0-1.6,0
		c0-0.3,0-0.7,0.1-1.1c0.6,0,1.2,0,1.8,0C31.8,67,31.7,67.3,31.7,67.6z M33.3,67.7c-0.6,0-1.1,0-1.6,0c0-0.3,0.1-0.7,0.2-1.1
		c0.6,0,1.2,0.1,1.7,0.1C33.5,67.1,33.4,67.4,33.3,67.7z M34.9,67.8c-0.5,0-1-0.1-1.6-0.1c0.1-0.3,0.1-0.6,0.2-1
		c0.6,0,1.1,0.1,1.7,0.2C35.2,67.2,35,67.5,34.9,67.8z M36.4,67.9c-0.5,0-1-0.1-1.4-0.1c0.1-0.3,0.2-0.6,0.4-0.9
		c0.5,0.1,1,0.1,1.4,0.2c0,0,0,0,0.1,0C36.7,67.4,36.5,67.6,36.4,67.9z M37.8,68c-0.4,0-0.8-0.1-1.2-0.1c0,0-0.1,0-0.1,0
		c0.1-0.3,0.3-0.5,0.5-0.8c0.5,0.1,1,0.2,1.5,0.2C38.1,67.5,37.9,67.8,37.8,68z M39.3,68.2c-0.5-0.1-1-0.1-1.4-0.2
		c0.2-0.2,0.4-0.5,0.6-0.7c0.5,0.1,1,0.2,1.5,0.3C39.7,67.8,39.4,68,39.3,68.2z M40.5,68.4c-0.4-0.1-0.8-0.1-1.3-0.2
		c0.2-0.2,0.4-0.4,0.6-0.6c0.5,0.1,0.9,0.2,1.3,0.3C41,68,40.8,68.2,40.5,68.4z M41.8,68.7c-0.4-0.1-0.8-0.2-1.2-0.2
		c0.2-0.2,0.5-0.4,0.7-0.6c0.4,0.1,0.8,0.2,1.3,0.3C42.3,68.3,42,68.5,41.8,68.7z M43.1,68.9c-0.4-0.1-0.8-0.2-1.2-0.2
		c0.2-0.2,0.5-0.3,0.7-0.5c0.4,0.1,0.8,0.2,1.2,0.3C43.5,68.6,43.3,68.8,43.1,68.9z M44.1,69.1c-0.3-0.1-0.6-0.2-1-0.2
		c0.2-0.1,0.5-0.3,0.7-0.4c0.3,0.1,0.6,0.2,1,0.3C44.6,68.9,44.3,69,44.1,69.1z M45.1,69.3c-0.3-0.1-0.6-0.1-0.9-0.2
		c0.2-0.1,0.4-0.2,0.6-0.4c0.3,0.1,0.6,0.2,0.9,0.3C45.5,69.1,45.3,69.2,45.1,69.3z M46,69.6c-0.3-0.1-0.6-0.2-0.9-0.2
		c0.2-0.1,0.4-0.2,0.6-0.3c0.3,0.1,0.6,0.2,0.8,0.3C46.4,69.4,46.2,69.5,46,69.6z M46.8,69.8c-0.2-0.1-0.4-0.1-0.7-0.2
		c0.2-0.1,0.3-0.2,0.5-0.3c0.3,0.1,0.5,0.2,0.7,0.2C47.2,69.6,47,69.7,46.8,69.8z M47.4,69.5c-0.2-0.1-0.5-0.2-0.7-0.2
		c0.2-0.1,0.3-0.2,0.5-0.2c0.3,0.1,0.5,0.2,0.7,0.3C47.7,69.4,47.6,69.4,47.4,69.5z"/>
	<path class="st20" d="M35.2,96.9c-0.1,0-0.1,0-0.2,0C18.6,95.6-1,84,6.2,70.2c0,0-1,0.9-1.5,2.2c-6,13.3,13.2,24.5,29.3,25.7
		c0.1,0,0.1,0,0.2,0l4.3,5.9c0,0,0.7-1.7,0.8-1.7L35.2,96.9z"/>
	<g>
		<path class="st20" d="M8.9,87.7c-0.1-0.5-0.1-1.1-0.1-1.6c-3.8-4-5.3-9.2-3.3-13.3C8.2,67,16.8,64.2,27,64
			c-11-0.2-20.3,3.3-23.1,9.4C1.7,78.1,3.8,83.4,8.9,87.7z"/>
	</g>
	
		<radialGradient id="SVGID_8_" cx="93.3049" cy="418.4188" r="14.6836" gradientTransform="matrix(-0.4411 0.8974 1.7312 0.8509 -662.4623 -349.2207)" gradientUnits="userSpaceOnUse">
		<stop  offset="0" style="stop-color:#979797"/>
		<stop  offset="0.1993" style="stop-color:#949494"/>
		<stop  offset="0.3942" style="stop-color:#8A8A8A"/>
		<stop  offset="0.5873" style="stop-color:#777777"/>
		<stop  offset="0.7794" style="stop-color:#676767"/>
		<stop  offset="0.9691" style="stop-color:#5C5C5C"/>
		<stop  offset="1" style="stop-color:#5A5A5A"/>
	</radialGradient>
	<path class="st21" d="M34.1,98c-0.1,0-0.1,0-0.2,0C17.9,96.7-1.2,85.7,4.7,72.3c0.5-1,1.1-1.7,1.4-2l0,0c0,0-1.1,0.9-2.4,3.2l0,0
		c-4.2,6.7-13.3,27.8,30.5,34.8l4.2-4.2c0,0,0-0.1,0-0.2L34.1,98z"/>
</g>
<g id="LogoMark_2_">
	
		<linearGradient id="SVGID_9_" gradientUnits="userSpaceOnUse" x1="34.4285" y1="51.1315" x2="3.0946" y2="51.1315" gradientTransform="matrix(1 0 0 -1 0 190)">
		<stop  offset="9.852217e-03" style="stop-color:#457FC1"/>
		<stop  offset="0.5093" style="stop-color:#087AC0"/>
		<stop  offset="0.7117" style="stop-color:#14609B"/>
		<stop  offset="0.8988" style="stop-color:#164D85"/>
		<stop  offset="1" style="stop-color:#18467E"/>
	</linearGradient>
	<path class="st22" d="M49,132.3c-2.9-1.5-6.3-2.8-10-3.7c-15.6-3.9-31.3-0.4-35.1,7.8c-2.2,4.7,0,9.9,5.1,14.3
		c-0.3-2.5,0.1-5,1.2-7.4c4.8-10.3,21.4-14.1,37-10.2C47.2,133.2,49,132.3,49,132.3z"/>
	<g>
		<path class="st23" d="M63.7,176.5c-0.3-0.5-0.8-0.6-1.3-0.6c-0.5,0-1.3,0.2-1.3,0.9c0,0.6,0.6,0.7,1.3,0.8
			c0.8,0.2,1.7,0.3,1.7,1.3c0,1-1,1.2-1.7,1.2c-0.7,0-1.4-0.3-1.8-1l0.3-0.2c0.3,0.5,1,0.8,1.5,0.8s1.4-0.2,1.4-0.9
			c0-0.6-0.7-0.8-1.4-0.9c-0.8-0.2-1.6-0.3-1.6-1.1c0-0.9,1-1.2,1.7-1.2c0.6,0,1.2,0.1,1.6,0.7L63.7,176.5z"/>
		<path class="st23" d="M65.1,175.7v1.9c0.3-0.5,0.7-0.6,1.1-0.6c0.9,0,1.3,0.6,1.3,1.4v1.8h-0.3v-1.8c0-0.6-0.3-1.1-1-1.1
			c-0.6,0-1.1,0.5-1.1,1.1v1.7h-0.3v-4.4H65.1L65.1,175.7z"/>
		<path class="st23" d="M71.3,177c0,1,0,2.1,0,3.1H71v-0.6c-0.3,0.5-0.8,0.7-1.3,0.7c-0.9,0-1.6-0.6-1.6-1.6c0-1,0.7-1.6,1.6-1.6
			c0.5,0,1,0.2,1.3,0.7V177L71.3,177L71.3,177z M68.4,178.5c0,0.8,0.6,1.3,1.3,1.3c1.7,0,1.7-2.6,0-2.6
			C69,177.2,68.4,177.7,68.4,178.5z"/>
		<path class="st23" d="M72.1,181.4V177h0.3v0.7c0.2-0.5,0.7-0.8,1.3-0.8c0.8,0,1.5,0.6,1.5,1.6c0,1-0.7,1.6-1.6,1.6
			c-0.5,0-1-0.3-1.3-0.8v2L72.1,181.4L72.1,181.4z M74.9,178.5c0-0.9-0.6-1.3-1.3-1.3c-0.7,0-1.3,0.5-1.3,1.3s0.5,1.3,1.3,1.3
			C74.3,179.8,74.9,179.4,74.9,178.5z"/>
		<path class="st23" d="M75.8,178.5c0-0.9,0.7-1.6,1.6-1.6c0.9,0,1.6,0.5,1.5,1.7h-2.7c0.1,0.7,0.6,1.1,1.3,1.1
			c0.4,0,0.9-0.2,1.1-0.5l0.2,0.2c-0.3,0.4-0.8,0.6-1.3,0.6C76.5,180.1,75.8,179.5,75.8,178.5z M78.6,178.4c0-0.8-0.5-1.2-1.3-1.2
			c-0.6,0-1.2,0.4-1.3,1.2H78.6z"/>
		<path class="st23" d="M84.9,180.1l-0.5-1.1h-2.6l-0.5,1.1H81l2-4.4h0.4l2,4.4H84.9z M84.3,178.7l-1.2-2.7l-1.2,2.7H84.3z"/>
		<path class="st23" d="M86,177v0.5c0.2-0.4,0.7-0.6,1.1-0.6c0.8,0,1.4,0.5,1.4,1.4v1.8h-0.3v-1.8c0-0.7-0.4-1.1-1.1-1.1
			c-0.6,0-1.1,0.5-1.1,1.1v1.7h-0.3v-3.1L86,177L86,177z"/>
		<path class="st23" d="M92.3,177c0,1,0,2.1,0,3.1H92v-0.6c-0.3,0.5-0.8,0.7-1.3,0.7c-0.9,0-1.6-0.6-1.6-1.6c0-1,0.7-1.6,1.6-1.6
			c0.5,0,1,0.2,1.3,0.7V177L92.3,177L92.3,177z M89.5,178.5c0,0.8,0.6,1.3,1.3,1.3c1.7,0,1.7-2.6,0-2.6
			C90,177.2,89.5,177.7,89.5,178.5z"/>
		<path class="st23" d="M93.5,175.7v4H96v0.3h-2.8v-4.4H93.5z"/>
		<path class="st23" d="M98.9,177l-1.9,4.4h-0.3l0.6-1.3l-1.2-3h0.3l0.7,1.8l0.4,0.9l0.3-0.9l0.8-1.8L98.9,177L98.9,177z"/>
		<path class="st23" d="M101.7,177.5c-0.3-0.3-0.6-0.3-1-0.3c-0.5,0-1,0.2-0.9,0.6c0,0.4,0.5,0.5,0.9,0.6c0.5,0.1,1.3,0.2,1.3,0.9
			c0,0.7-0.7,0.9-1.3,0.9c-0.5,0-1.1-0.2-1.3-0.6l0.2-0.2c0.3,0.4,0.7,0.5,1.1,0.5c0.4,0,1-0.1,1-0.6c0-0.5-0.5-0.5-1-0.6
			c-0.6-0.1-1.2-0.2-1.2-0.8c0-0.6,0.6-0.9,1.2-0.9c0.5,0,0.8,0.1,1.1,0.4L101.7,177.5z"/>
		<path class="st23" d="M103.1,176c0,0.3-0.5,0.3-0.5,0C102.6,175.7,103.1,175.7,103.1,176z M102.6,177v3.1h0.3V177H102.6z"/>
		<path class="st23" d="M105.9,177.5c-0.3-0.3-0.6-0.3-1-0.3c-0.5,0-1,0.2-0.9,0.6c0,0.4,0.5,0.5,0.9,0.6c0.5,0.1,1.3,0.2,1.3,0.9
			c0,0.7-0.7,0.9-1.3,0.9c-0.5,0-1.1-0.2-1.3-0.6l0.2-0.2c0.3,0.4,0.7,0.5,1.1,0.5c0.4,0,1-0.1,1-0.6c0-0.5-0.5-0.5-1-0.6
			c-0.6-0.1-1.2-0.2-1.2-0.8c0-0.6,0.6-0.9,1.2-0.9c0.5,0,0.8,0.1,1.1,0.4L105.9,177.5z"/>
		<path class="st23" d="M109.9,176h-1.6v-0.3h3.5v0.3h-1.6v4.1h-0.3L109.9,176L109.9,176z"/>
		<path class="st23" d="M111.5,178.5c0-1,0.7-1.6,1.6-1.6s1.6,0.6,1.6,1.6s-0.7,1.6-1.6,1.6S111.5,179.5,111.5,178.5z M114.3,178.5
			c0-0.8-0.6-1.3-1.3-1.3c-0.7,0-1.3,0.5-1.3,1.3s0.6,1.3,1.3,1.3C113.7,179.8,114.3,179.3,114.3,178.5z"/>
		<path class="st23" d="M115.2,178.5c0-1,0.7-1.6,1.6-1.6s1.6,0.6,1.6,1.6s-0.7,1.6-1.6,1.6C115.9,180.1,115.2,179.5,115.2,178.5z
			 M118,178.5c0-0.8-0.6-1.3-1.3-1.3c-0.7,0-1.3,0.5-1.3,1.3s0.6,1.3,1.3,1.3S118,179.3,118,178.5z"/>
		<path class="st23" d="M119.3,175.7v4.4H119v-4.4H119.3z"/>
		<path class="st23" d="M120.5,175.7v2c0.3-0.5,0.8-0.7,1.3-0.7c0.9,0,1.6,0.6,1.6,1.6c0,1-0.7,1.6-1.5,1.6c-0.5,0-1-0.3-1.3-0.7
			v0.7h-0.3v-4.4L120.5,175.7L120.5,175.7z M120.5,178.5c0,0.8,0.5,1.3,1.3,1.3c0.7,0,1.3-0.4,1.3-1.3s-0.6-1.3-1.3-1.3
			C121,177.2,120.5,177.7,120.5,178.5z"/>
		<path class="st23" d="M123.9,178.5c0-1,0.7-1.6,1.6-1.6s1.6,0.6,1.6,1.6s-0.7,1.6-1.6,1.6C124.6,180.1,123.9,179.5,123.9,178.5z
			 M126.7,178.5c0-0.8-0.6-1.3-1.3-1.3c-0.7,0-1.3,0.5-1.3,1.3s0.6,1.3,1.3,1.3C126.1,179.8,126.7,179.3,126.7,178.5z"/>
		<path class="st23" d="M128.8,178.2l0.9-1.3h0.4v0l-1.1,1.5l1.2,1.6v0h-0.4l-1-1.4l-1,1.4h-0.4v0l1.2-1.6l-1.1-1.5v0h0.4
			L128.8,178.2z"/>
	</g>
	<g>
		<path class="st23" d="M72.8,157c-0.7-1.1-2.5-2.2-4.7-2.2c-2.8,0-4.1,1.2-4.1,2.6c0,1.7,2,2.2,4.4,2.5c4.1,0.5,8,1.6,8,6.3
			c0,4.4-3.9,6.3-8.3,6.3c-4,0-7.1-1.3-8.6-4.9l3.1-1.6c0.9,2.2,3.2,3.1,5.6,3.1c2.3,0,4.5-0.8,4.5-3c0-1.9-1.9-2.6-4.6-2.9
			c-4-0.5-7.8-1.6-7.8-6c0-4.1,4-5.7,7.6-5.8c3.1,0,6.3,0.9,7.8,3.9L72.8,157z"/>
		<path class="st23" d="M93.3,168.3H83l-1.7,3.7h-4l8.9-19.8h4L99,172H95L93.3,168.3z M88.1,156.4l-3.7,8.4h7.3L88.1,156.4z"/>
		<path class="st23" d="M104.7,152.2v16.3h10.2v3.4H101v-19.8H104.7z"/>
		<path class="st23" d="M119.7,155.6h-6.3v-3.4c5.7,0,10.5,0,16.3,0v3.4h-6.3V172h-3.7V155.6z"/>
	</g>
	
		<linearGradient id="SVGID_10_" gradientUnits="userSpaceOnUse" x1="-240.4433" y1="-185.6566" x2="-271.7772" y2="-185.6566" gradientTransform="matrix(-1 0 0 1 -223.9278 358.384)">
		<stop  offset="9.852217e-03" style="stop-color:#7FC78C"/>
		<stop  offset="0.5093" style="stop-color:#3EB54A"/>
		<stop  offset="0.5874" style="stop-color:#399B42"/>
		<stop  offset="0.7793" style="stop-color:#2A6B32"/>
		<stop  offset="0.9225" style="stop-color:#1F5127"/>
		<stop  offset="1" style="stop-color:#1B4822"/>
	</linearGradient>
	<path class="st24" d="M1.9,179.2c2.9,1.5,6.3,2.8,10,3.7c15.6,4,31.3,0.5,35.1-7.8c2.2-4.7,0-9.9-5.1-14.3c0.3,2.5-0.1,5-1.2,7.4
		c-4.8,10.3-21.4,14.1-37,10.2C3.8,178.4,1.9,179.2,1.9,179.2z"/>
	<g>
		<path class="st23" d="M69.9,136c-0.5-0.9-2-1.7-3.6-1.7c-2.1,0-3.2,0.9-3.2,2.1c0,1.4,1.6,1.7,3.4,1.9c3.2,0.4,6.2,1.2,6.2,4.9
			c0,3.5-3,4.9-6.4,4.9c-3.1,0-5.6-1-6.7-3.8l2.4-1.3c0.7,1.7,2.5,2.5,4.3,2.5c1.8,0,3.5-0.6,3.5-2.3c0-1.5-1.5-2.1-3.5-2.3
			c-3.1-0.4-6-1.2-6-4.7c0-3.2,3.1-4.5,5.9-4.5c2.4,0,4.9,0.7,6,3.1L69.9,136z"/>
		<path class="st23" d="M77.7,132.3v15.5H75v-15.5H77.7z"/>
		<path class="st23" d="M82.9,133.7c0,2.1-3.2,2.1-3.2,0S82.9,131.6,82.9,133.7z M80,136.8v11h2.7v-11H80z"/>
		<path class="st23" d="M94.3,146.3c-1.3,1.2-2.6,1.7-4.2,1.7c-3.1,0-5.7-1.9-5.7-5.8c0-3.9,2.6-5.8,5.7-5.8c1.5,0,2.7,0.4,3.9,1.6
			l-1.7,1.8c-0.6-0.6-1.4-0.9-2.2-0.9c-1.8,0-3.1,1.3-3.1,3.2c0,2.1,1.4,3.2,3.1,3.2c0.9,0,1.7-0.2,2.4-0.9L94.3,146.3z"/>
		<path class="st23" d="M98.2,143.2c0.2,1.4,1.3,2.3,3.2,2.3c1,0,2.3-0.4,2.9-1l1.7,1.7c-1.1,1.2-3,1.8-4.6,1.8
			c-3.7,0-5.9-2.3-5.9-5.8c0-3.3,2.2-5.7,5.7-5.7c3.6,0,5.9,2.3,5.5,6.8L98.2,143.2L98.2,143.2z M104.1,141
			c-0.2-1.4-1.3-2.1-2.8-2.1c-1.4,0-2.6,0.7-3,2.1H104.1z"/>
		<path class="st23" d="M111.2,136.8l0.2,1.3c0.8-1.4,1.9-1.6,3-1.6c1.1,0,2.2,0.5,2.8,1l-1.2,2.4c-0.5-0.5-1.1-0.7-1.9-0.7
			c-1.4,0-2.7,0.8-2.7,2.8v5.7h-2.7v-10.9H111.2z"/>
	</g>
	<path class="st4" d="M38.7,188"/>
	<path class="st5" d="M2.4,179.5c0.2-0.1,0.4-0.1,0.6-0.2c0.2,0.1,0.4,0.2,0.7,0.3c-0.2,0.1-0.4,0.2-0.6,0.3c0,0,0,0,0,0
		c0.2-0.1,0.4-0.2,0.6-0.3c0.2,0.1,0.5,0.2,0.8,0.3c-0.2,0.1-0.5,0.2-0.7,0.3c0,0,0,0,0,0c0.2-0.1,0.5-0.2,0.7-0.3
		c0.3,0.1,0.5,0.2,0.8,0.3c-0.2,0.1-0.5,0.2-0.8,0.3c0,0,0,0,0,0c0.3-0.1,0.5-0.2,0.8-0.3c0.3,0.1,0.6,0.2,0.9,0.3
		c-0.3,0.1-0.6,0.2-0.9,0.4c0,0,0,0,0,0c0.3-0.1,0.6-0.2,0.9-0.4c0.4,0.1,0.8,0.3,1.2,0.4c-0.3,0.2-0.6,0.3-0.9,0.4c0,0,0,0,0,0
		c0.3-0.2,0.6-0.3,0.9-0.4c0.4,0.1,0.8,0.2,1.3,0.4c-0.3,0.2-0.6,0.3-0.9,0.5c0,0,0,0,0,0c0.3-0.2,0.6-0.3,0.9-0.5
		c0.4,0.1,0.9,0.2,1.4,0.4c-0.3,0.2-0.5,0.4-0.8,0.6c0,0,0,0,0,0c0.3-0.2,0.6-0.4,0.8-0.6c0.5,0.1,1,0.3,1.5,0.4
		c-0.2,0.2-0.5,0.5-0.8,0.7c0,0,0,0,0,0c0.3-0.2,0.6-0.5,0.8-0.7c0.5,0.1,0.9,0.2,1.4,0.3c0.1,0,0.2,0,0.3,0.1
		c-0.2,0.3-0.4,0.5-0.6,0.8c0,0,0,0,0,0c0.2-0.3,0.4-0.5,0.6-0.8c0.5,0.1,1.1,0.2,1.6,0.3c-0.2,0.3-0.3,0.6-0.5,0.9h0
		c0.2-0.3,0.3-0.6,0.5-0.9c0.6,0.1,1.2,0.2,1.8,0.3c-0.1,0.3-0.2,0.6-0.4,0.9h0c0.2-0.3,0.3-0.6,0.4-0.9c0.6,0.1,1.2,0.2,1.8,0.2
		c-0.1,0.3-0.2,0.6-0.3,1h0c0.1-0.3,0.2-0.7,0.3-1c0.6,0.1,1.3,0.1,1.9,0.2c-0.1,0.3-0.2,0.7-0.3,1h0c0.1-0.4,0.2-0.7,0.3-1
		c0.7,0,1.4,0.1,2.1,0.1c0,0.3-0.1,0.7-0.2,1.1h0c0.1-0.4,0.1-0.8,0.2-1.1c0.1,0,0.2,0,0.4,0c0.2,0,0.3,0,0.4,0c0.4,0,0.8,0,1.2,0
		c0,0.4,0,0.8-0.1,1.2h0c0-0.4,0.1-0.8,0.1-1.2c0.6,0,1.3-0.1,1.9-0.1c0,0.4,0,0.8-0.1,1.2h0c0-0.4,0.1-0.8,0.1-1.2
		c0.7-0.1,1.4-0.2,2-0.3c0,0.4,0,0.9-0.1,1.3h0c0-0.5,0.1-0.9,0.1-1.3c0.7-0.1,1.4-0.3,2.1-0.4c0,0.5,0,0.9-0.1,1.4h0
		c0-0.5,0.1-1,0.1-1.4c0.8-0.2,1.6-0.4,2.3-0.6c0,0.5-0.1,1-0.2,1.6h0c0.1-0.6,0.1-1.1,0.2-1.6c0.5-0.2,0.9-0.3,1.3-0.5
		c0.4-0.2,0.8-0.3,1.2-0.5c0,0.6-0.1,1.3-0.1,2h0c0.1-0.7,0.1-1.4,0.1-2c0.9-0.4,1.7-0.9,2.6-1.4c0,0.7,0,1.5-0.2,2.4h0
		c0.1-0.9,0.2-1.7,0.2-2.5c0.9-0.5,1.7-1.1,2.5-1.8c0.1,0.9,0.1,1.8,0,2.9h0c0.1-1.1,0.1-2,0-2.9c0.9-0.7,1.7-1.6,2.5-2.4
		c0.1,1,0.1,2.2-0.1,3.5h0c0.2-1.2,0.3-2.4,0.1-3.5c0.7-0.8,1.3-1.6,1.9-2.5c0.2,0.9,0.2,1.8,0.2,2.7h0c0.1-1,0-1.9-0.2-2.7
		c0.7-1.1,1.4-2.2,2-3.5c0,0,0,0,0,0c-0.6,1.2-1.3,2.4-2,3.5c-0.2-1-0.5-2-0.8-2.8c0.6-1.2,1.2-2.4,1.6-3.7c0,0,0,0,0,0
		c-0.5,1.3-1,2.6-1.6,3.7c-0.3-0.6-0.5-1.2-0.8-1.6c-0.2-0.3-0.4-0.6-0.5-0.9c0.5-1.2,0.9-2.4,1.2-3.7l0,0c-0.3,1.3-0.7,2.6-1.2,3.7
		c-0.8-1.3-1.6-2.1-1.6-2.1h0v0c0.1,0.1,0.8,0.9,1.6,2.1c-0.5,1.1-1,2.2-1.6,3.2c-0.7-1-1.3-1.5-1.3-1.5v0c0,0,0,0,0,0
		c0,0,0.6,0.5,1.3,1.5c-0.6,0.9-1.2,1.8-1.9,2.6c-0.5-1.1-1-1.7-1-1.7l0,0c0,0,0.5,0.6,1,1.7c-0.6,0.7-1.3,1.4-2,2
		c-0.5-1.2-1-1.7-1-1.7l0,0l0,0c0,0,0.5,0.5,1,1.7c-0.7,0.6-1.5,1.2-2.3,1.7c0,0,0,0,0,0c-0.3-1.2-0.8-1.7-0.8-1.8l0,0l0,0
		c0,0,0.4,0.5,0.8,1.8c0,0,0,0,0,0.1c-0.3,0.2-0.5,0.3-0.8,0.5c-0.5,0.3-1,0.6-1.6,0.8c0,0,0,0,0-0.1c-0.3-1.2-0.6-1.8-0.6-1.8l0,0
		c0,0,0.4,0.6,0.6,1.8c-0.7,0.3-1.5,0.6-2.2,0.9c-0.2-1.3-0.5-1.8-0.5-1.8l0,0l0,0c0,0,0.3,0.5,0.5,1.8c-0.7,0.3-1.4,0.5-2.2,0.6
		c-0.2-1.1-0.4-1.7-0.4-1.7l0,0c0,0,0.2,0.6,0.4,1.7c-0.7,0.2-1.3,0.3-2,0.5c-0.2-1-0.4-1.5-0.4-1.5h0l0,0c0,0,0.2,0.5,0.4,1.5
		c-0.6,0.1-1.3,0.2-1.9,0.3c-0.1-0.7-0.3-1.2-0.4-1.4h0c0.1,0.2,0.2,0.7,0.4,1.4c-0.6,0.1-1.2,0.2-1.8,0.2c-0.1-0.6-0.2-1.1-0.2-1.3
		h0c0.1,0.2,0.2,0.6,0.2,1.3c-0.6,0-1.2,0.1-1.8,0.1c0-0.5,0-0.9-0.1-1.2h0c0,0.3,0.1,0.7,0.1,1.2c-0.6,0-1.2,0-1.7,0
		c0-0.4,0-0.8,0-1.1h0c0,0.3,0,0.6,0,1.1c-0.6,0-1.1,0-1.6,0c0.1-0.4,0.1-0.7,0.1-1h0c0,0.3-0.1,0.6-0.1,1c-0.5,0-1,0-1.6-0.1
		c0.1-0.3,0.2-0.6,0.3-0.8h0c-0.1,0.2-0.2,0.5-0.3,0.8c-0.5,0-1-0.1-1.4-0.1c0.1-0.3,0.2-0.5,0.3-0.7c0,0,0,0,0,0
		c-0.1,0.2-0.2,0.5-0.3,0.7c0,0-0.1,0-0.1,0c-0.4,0-0.8-0.1-1.2-0.1c0.2-0.2,0.3-0.5,0.5-0.6c0,0,0,0,0,0c-0.1,0.2-0.3,0.4-0.5,0.6
		c-0.5-0.1-1-0.1-1.4-0.2c0.2-0.2,0.3-0.4,0.5-0.5c0,0,0,0,0,0c-0.1,0.2-0.3,0.3-0.5,0.5c-0.4-0.1-0.8-0.1-1.2-0.2
		c0.2-0.2,0.3-0.3,0.5-0.5c0,0,0,0,0,0c-0.2,0.1-0.3,0.3-0.5,0.5c-0.4-0.1-0.8-0.2-1.2-0.2c0.2-0.1,0.3-0.3,0.5-0.4c0,0,0,0,0,0
		c-0.2,0.1-0.3,0.2-0.5,0.4c-0.4-0.1-0.8-0.2-1.2-0.2c0.2-0.1,0.3-0.2,0.5-0.3c0,0,0,0,0,0c-0.2,0.1-0.3,0.2-0.5,0.3
		c-0.3-0.1-0.7-0.2-1-0.2c0.2-0.1,0.3-0.2,0.4-0.3c0,0,0,0,0,0c-0.1,0.1-0.3,0.2-0.4,0.3c-0.3-0.1-0.6-0.2-0.9-0.2
		c0.1-0.1,0.3-0.2,0.4-0.2c0,0,0,0,0,0c-0.1,0.1-0.2,0.2-0.4,0.2c-0.3-0.1-0.6-0.2-0.9-0.2c0.1-0.1,0.2-0.1,0.3-0.2c0,0,0,0,0,0
		c-0.1,0.1-0.2,0.1-0.3,0.2c-0.3-0.1-0.5-0.1-0.7-0.2c0.1-0.1,0.2-0.1,0.3-0.2c0,0,0,0,0,0c-0.1,0.1-0.2,0.1-0.3,0.2
		c-0.3-0.1-0.6-0.2-0.7-0.2c0,0,0,0,0,0c0.1,0,0.3,0.1,0.7,0.2c-0.2,0.1-0.4,0.2-0.6,0.3c-0.3-0.1-0.6-0.2-0.6-0.2c0,0,0,0,0,0
		c0.1,0,0.3,0.1,0.6,0.2c-0.2,0.1-0.3,0.1-0.5,0.2c-0.3-0.1-0.5-0.2-0.6-0.2h0v0c0,0,0.2,0.1,0.6,0.2C2.8,179.4,2.7,179.4,2.4,179.5
		C2.4,179.5,2.4,179.5,2.4,179.5z M4.6,179.8c-0.3-0.1-0.5-0.2-0.8-0.3c0.2-0.1,0.3-0.2,0.5-0.2c0.3,0.1,0.5,0.2,0.8,0.3
		C5,179.7,4.8,179.8,4.6,179.8z M5.4,180.1c-0.3-0.1-0.6-0.2-0.8-0.3c0.2-0.1,0.4-0.2,0.6-0.3c0.3,0.1,0.6,0.2,0.9,0.3
		C5.9,179.9,5.7,180,5.4,180.1z M6.3,180.5c-0.3-0.1-0.6-0.2-0.9-0.3c0.2-0.1,0.4-0.2,0.6-0.3c0.3,0.1,0.6,0.2,1,0.3
		C6.8,180.2,6.6,180.3,6.3,180.5z M7.6,180.9c-0.4-0.1-0.8-0.3-1.2-0.4c0.3-0.1,0.5-0.2,0.7-0.3c0.4,0.1,0.8,0.2,1.2,0.3
		C8.1,180.6,7.9,180.7,7.6,180.9z M8.9,181.2c-0.4-0.1-0.8-0.2-1.3-0.4c0.3-0.2,0.5-0.3,0.7-0.4c0.4,0.1,0.8,0.2,1.3,0.3
		C9.4,180.9,9.2,181.1,8.9,181.2z M10.3,181.6c-0.5-0.1-0.9-0.2-1.3-0.4c0.3-0.2,0.5-0.3,0.7-0.5c0.4,0.1,0.9,0.2,1.3,0.3
		C10.8,181.2,10.5,181.4,10.3,181.6z M11.8,182c-0.5-0.1-1-0.2-1.5-0.4c0.3-0.2,0.5-0.4,0.7-0.6c0.5,0.1,1,0.2,1.5,0.3
		C12.3,181.5,12.1,181.7,11.8,182z M13.6,182.4c-0.1,0-0.2,0-0.3-0.1c-0.5-0.1-0.9-0.2-1.4-0.3c0.3-0.2,0.5-0.5,0.7-0.7
		c0.5,0.1,1,0.2,1.5,0.2C13.9,181.8,13.8,182.1,13.6,182.4z M15.2,182.7c-0.5-0.1-1.1-0.2-1.6-0.3c0.2-0.3,0.4-0.6,0.5-0.8
		c0,0,0.1,0,0.1,0c0.5,0.1,1,0.1,1.4,0.2C15.5,182,15.3,182.3,15.2,182.7z M17,183c-0.6-0.1-1.2-0.2-1.8-0.3
		c0.2-0.3,0.3-0.6,0.5-0.9c0.6,0.1,1.1,0.1,1.7,0.2C17.2,182.2,17.1,182.6,17,183z M18.8,183.1c-0.6-0.1-1.2-0.1-1.8-0.2
		c0.1-0.4,0.2-0.7,0.3-1c0.6,0,1.1,0.1,1.7,0.1C19,182.4,18.9,182.8,18.8,183.1z M20.7,183.3c-0.6,0-1.3-0.1-1.9-0.2
		c0.1-0.4,0.2-0.8,0.3-1.1c0.6,0,1.2,0,1.8,0.1C20.9,182.5,20.8,182.9,20.7,183.3z M22.9,183.4c-0.7,0-1.4,0-2.1-0.1
		c0.1-0.4,0.2-0.8,0.2-1.2c0.1,0,0.3,0,0.4,0c0.5,0,1,0,1.5,0C22.9,182.5,22.9,182.9,22.9,183.4z M24.9,183.3c-0.7,0-1.4,0-2,0
		c0-0.5,0.1-0.9,0.1-1.3c0.6,0,1.3-0.1,1.9-0.1l0,0C24.9,182.4,24.9,182.8,24.9,183.3z M26.9,183.2c-0.6,0.1-1.3,0.1-1.9,0.1
		c0-0.5,0-1,0-1.4c0.6-0.1,1.3-0.1,1.9-0.2C26.9,182.2,26.9,182.7,26.9,183.2z M28.9,183c-0.7,0.1-1.3,0.2-2,0.3c0-0.5,0-1,0-1.5
		c0.7-0.1,1.4-0.2,2-0.3C28.9,181.9,28.9,182.4,28.9,183z M31.1,182.5c-0.7,0.2-1.4,0.3-2.1,0.4c0-0.6,0-1.1,0-1.6
		c0.7-0.2,1.4-0.3,2.1-0.5C31.1,181.3,31.1,181.9,31.1,182.5z M33.4,181.9c-0.8,0.3-1.6,0.5-2.3,0.6c0-0.6,0-1.2,0-1.7
		c0.8-0.2,1.6-0.5,2.3-0.8C33.4,180.6,33.5,181.2,33.4,181.9z M36,180.9c-0.4,0.2-0.8,0.4-1.3,0.5c-0.4,0.2-0.9,0.3-1.3,0.5
		c0-0.7,0-1.3,0-1.8c0.8-0.3,1.6-0.7,2.3-1c0.1,0,0.2-0.1,0.2-0.1C36,179.4,36,180.1,36,180.9z M36,180.8c0-0.8,0-1.4-0.1-2
		c0.9-0.5,1.7-1,2.5-1.6c0.1,0.6,0.2,1.4,0.2,2.2C37.8,180,36.9,180.4,36,180.8z M38.6,179.5c0-0.8-0.1-1.6-0.2-2.2
		c0.8-0.6,1.5-1.2,2.2-1.9c0.2,0.7,0.3,1.4,0.4,2.3C40.3,178.3,39.5,178.9,38.6,179.5z M41.1,177.6c-0.1-0.9-0.2-1.6-0.4-2.3
		c0.8-0.8,1.6-1.7,2.3-2.7c0.3,0.7,0.5,1.6,0.7,2.5C42.9,176.1,42.1,176.9,41.1,177.6z M45.6,172.7c-0.6,0.9-1.2,1.7-1.9,2.5
		c0-0.2-0.1-0.4-0.1-0.6c-0.1-0.6-0.3-1.3-0.6-1.9c0.6-0.9,1.2-1.8,1.7-2.8C45.1,170.7,45.4,171.7,45.6,172.7z M43.4,167.2
		c0.2,0.3,0.4,0.6,0.5,0.9c0.3,0.5,0.5,1,0.8,1.7c-0.5,1-1.1,1.9-1.7,2.8c-0.2-0.4-0.3-0.7-0.5-1.1c-0.2-0.4-0.4-0.7-0.6-1
		C42.4,169.5,43,168.4,43.4,167.2z M41.8,170.5c0.2,0.3,0.4,0.6,0.6,1c0.2,0.3,0.4,0.7,0.5,1.1c-0.7,1-1.5,1.8-2.3,2.6
		c-0.2-0.6-0.3-1-0.5-1.4c-0.1-0.3-0.2-0.5-0.3-0.7C40.6,172.3,41.3,171.4,41.8,170.5z M39.9,173.1c0.1,0.2,0.2,0.5,0.3,0.7
		c0.2,0.4,0.3,0.9,0.5,1.5c-0.7,0.7-1.4,1.3-2.2,1.9c-0.1-0.8-0.3-1.5-0.5-1.9c0,0,0-0.1,0-0.1C38.6,174.5,39.3,173.9,39.9,173.1z
		 M37.9,175.2c0,0,0,0.1,0,0.1c0.2,0.5,0.3,1.1,0.5,2c-0.8,0.6-1.6,1.1-2.5,1.6c-0.1-0.8-0.2-1.4-0.3-1.9
		C36.4,176.4,37.2,175.8,37.9,175.2z M34.8,177.4c0.3-0.2,0.5-0.3,0.8-0.5c0.1,0.5,0.3,1.1,0.3,1.9c-0.1,0-0.2,0.1-0.2,0.1
		c-0.7,0.4-1.5,0.7-2.3,1c0-0.7-0.1-1.3-0.2-1.7C33.7,178,34.3,177.7,34.8,177.4z M33.2,178.2c0.1,0.5,0.2,1.1,0.2,1.7
		c-0.8,0.3-1.5,0.6-2.3,0.8c0-0.6-0.1-1.2-0.2-1.6C31.7,178.9,32.4,178.6,33.2,178.2z M30.9,179.2c0.1,0.4,0.1,1,0.2,1.6
		c-0.7,0.2-1.4,0.4-2.1,0.5c0-0.6-0.1-1.1-0.2-1.5C29.5,179.6,30.2,179.4,30.9,179.2z M28.7,179.8c0.1,0.4,0.1,0.9,0.2,1.5
		c-0.7,0.1-1.3,0.3-2,0.3c0-0.5-0.1-1-0.2-1.4C27.4,180.2,28.1,180,28.7,179.8z M26.7,180.3c0.1,0.4,0.1,0.9,0.2,1.4
		c-0.6,0.1-1.3,0.2-1.9,0.2c0-0.5-0.1-0.9-0.2-1.3C25.4,180.5,26,180.4,26.7,180.3z M24.6,180.6C24.6,180.6,24.7,180.6,24.6,180.6
		c0.2,0.3,0.2,0.8,0.3,1.3c-0.6,0.1-1.3,0.1-1.9,0.1c0-0.5,0-0.9-0.1-1.2C23.5,180.7,24,180.7,24.6,180.6z M21,180.9
		c0.6,0,1.2-0.1,1.8-0.1c0,0.3,0.1,0.8,0.1,1.2c-0.6,0-1.3,0-1.9,0C21,181.6,21,181.2,21,180.9z M19.3,180.9c0,0,0.1,0,0.2,0
		c0.5,0,1.1,0,1.6,0c0,0.3,0,0.7-0.1,1.1c-0.6,0-1.2,0-1.8,0C19.2,181.6,19.2,181.3,19.3,180.9z M17.6,180.9c0.6,0,1.1,0,1.6,0
		c0,0.3-0.1,0.7-0.2,1.1c-0.6,0-1.2-0.1-1.7-0.1C17.5,181.5,17.5,181.2,17.6,180.9z M16,180.8c0.5,0,1,0.1,1.6,0.1
		c-0.1,0.3-0.1,0.6-0.2,1c-0.6,0-1.1-0.1-1.7-0.2C15.8,181.4,15.9,181.1,16,180.8z M14.6,180.7c0.5,0,1,0.1,1.4,0.1
		c-0.1,0.3-0.2,0.6-0.4,0.9c-0.5-0.1-1-0.1-1.4-0.2c0,0,0,0-0.1,0C14.3,181.2,14.4,181,14.6,180.7z M13.2,180.6
		c0.4,0,0.8,0.1,1.2,0.1c0,0,0.1,0,0.1,0c-0.1,0.3-0.3,0.5-0.5,0.8c-0.5-0.1-1-0.2-1.5-0.2C12.8,181,13,180.8,13.2,180.6z
		 M11.7,180.4c0.5,0.1,1,0.1,1.4,0.2c-0.2,0.2-0.4,0.5-0.6,0.7c-0.5-0.1-1-0.2-1.5-0.3C11.3,180.8,11.5,180.6,11.7,180.4z
		 M10.4,180.2c0.4,0.1,0.8,0.1,1.3,0.2c-0.2,0.2-0.4,0.4-0.6,0.6c-0.5-0.1-0.9-0.2-1.3-0.3C10,180.5,10.2,180.3,10.4,180.2z
		 M9.1,179.9c0.4,0.1,0.8,0.2,1.2,0.2c-0.2,0.2-0.5,0.4-0.7,0.6c-0.4-0.1-0.8-0.2-1.3-0.3C8.7,180.3,8.9,180.1,9.1,179.9z
		 M7.9,179.7c0.4,0.1,0.8,0.2,1.2,0.2c-0.2,0.2-0.5,0.3-0.7,0.5c-0.4-0.1-0.8-0.2-1.2-0.3C7.4,179.9,7.6,179.8,7.9,179.7z
		 M6.8,179.5c0.3,0.1,0.6,0.2,1,0.2c-0.2,0.1-0.5,0.3-0.7,0.4c-0.3-0.1-0.6-0.2-1-0.3C6.4,179.7,6.6,179.6,6.8,179.5z M5.9,179.2
		c0.3,0.1,0.6,0.1,0.9,0.2c-0.2,0.1-0.4,0.2-0.6,0.4c-0.3-0.1-0.6-0.2-0.9-0.3C5.5,179.5,5.7,179.3,5.9,179.2z M4.9,179
		c0.3,0.1,0.6,0.2,0.9,0.2c-0.2,0.1-0.4,0.2-0.6,0.3c-0.3-0.1-0.6-0.2-0.8-0.3C4.6,179.2,4.7,179.1,4.9,179z M4.2,178.8
		c0.2,0.1,0.4,0.1,0.7,0.2c-0.2,0.1-0.3,0.2-0.5,0.3c-0.3-0.1-0.5-0.2-0.7-0.2C3.8,179,4,178.9,4.2,178.8z M3.6,179.1
		c0.2,0.1,0.5,0.2,0.7,0.2c-0.2,0.1-0.3,0.2-0.5,0.2c-0.3-0.1-0.5-0.2-0.7-0.3C3.2,179.2,3.4,179.1,3.6,179.1z"/>
	<path class="st6" d="M15.7,151.7c0.1,0,0.1,0,0.2,0c16.4,1.3,36.1,12.9,28.9,26.6c0,0,1-0.9,1.5-2.2c6-13.3-13.2-24.5-29.3-25.7
		c-0.1,0-0.1,0-0.2,0l-4.3-5.9c0,0-0.7,1.7-0.8,1.7L15.7,151.7z"/>
	<g>
		<path class="st6" d="M42,160.9c0.1,0.5,0.1,1.1,0.1,1.6c3.8,4,5.3,9.2,3.3,13.3c-2.7,5.8-11.3,8.6-21.5,8.8
			c11,0.2,20.3-3.3,23.1-9.4C49.2,170.4,47.1,165.2,42,160.9z"/>
	</g>
	
		<radialGradient id="SVGID_11_" cx="-418.033" cy="-560.7066" r="14.6836" gradientTransform="matrix(0.4411 -0.8974 -1.7312 -0.8509 -756.0972 -694.2158)" gradientUnits="userSpaceOnUse">
		<stop  offset="0" style="stop-color:#85C441"/>
		<stop  offset="0.1993" style="stop-color:#81C341"/>
		<stop  offset="0.3942" style="stop-color:#74C044"/>
		<stop  offset="0.5873" style="stop-color:#5CBA47"/>
		<stop  offset="0.7794" style="stop-color:#27B34B"/>
		<stop  offset="0.9691" style="stop-color:#00AA4F"/>
		<stop  offset="1" style="stop-color:#00A94F"/>
	</radialGradient>
	<path class="st25" d="M16.8,150.6c0.1,0,0.1,0,0.2,0c16.1,1.3,35.2,12.3,29.3,25.6c-0.5,1-1.1,1.7-1.4,2l0,0c0,0,1.1-0.9,2.4-3.2
		l0,0c4.1-6.7,13.3-27.8-30.5-34.8l-4.2,4.2c0,0,0,0.1,0,0.2L16.8,150.6z"/>
	<path class="st8" d="M48.5,132.1c-0.2,0.1-0.4,0.1-0.6,0.2c-0.2-0.1-0.4-0.2-0.7-0.3c0.2-0.1,0.4-0.2,0.6-0.3c0,0,0,0,0,0
		c-0.2,0.1-0.4,0.2-0.6,0.3c-0.2-0.1-0.5-0.2-0.8-0.3c0.2-0.1,0.5-0.2,0.7-0.3c0,0,0,0,0,0c-0.2,0.1-0.5,0.2-0.7,0.3
		c-0.3-0.1-0.5-0.2-0.8-0.3c0.2-0.1,0.5-0.2,0.8-0.3c0,0,0,0,0,0c-0.3,0.1-0.5,0.2-0.8,0.3c-0.3-0.1-0.6-0.2-0.9-0.3
		c0.3-0.1,0.6-0.2,0.9-0.4c0,0,0,0,0,0c-0.3,0.1-0.6,0.2-0.9,0.4c-0.4-0.1-0.8-0.3-1.2-0.4c0.3-0.2,0.6-0.3,0.9-0.4c0,0,0,0,0,0
		c-0.3,0.2-0.6,0.3-0.9,0.4c-0.4-0.1-0.8-0.2-1.3-0.4c0.3-0.2,0.6-0.3,0.9-0.5c0,0,0,0,0,0c-0.3,0.2-0.6,0.3-0.9,0.5
		c-0.4-0.1-0.9-0.2-1.4-0.4c0.3-0.2,0.5-0.4,0.8-0.6c0,0,0,0,0,0c-0.3,0.2-0.6,0.4-0.8,0.6c-0.5-0.1-1-0.3-1.5-0.4
		c0.2-0.2,0.5-0.5,0.8-0.7c0,0,0,0,0,0c-0.3,0.2-0.6,0.5-0.8,0.7c-0.5-0.1-0.9-0.2-1.4-0.3c-0.1,0-0.2,0-0.3-0.1
		c0.2-0.3,0.4-0.5,0.6-0.8c0,0,0,0,0,0c-0.2,0.3-0.4,0.5-0.6,0.8c-0.5-0.1-1.1-0.2-1.6-0.3c0.2-0.3,0.3-0.6,0.5-0.9h0
		c-0.2,0.3-0.3,0.6-0.5,0.9c-0.6-0.1-1.2-0.2-1.8-0.3c0.1-0.3,0.2-0.6,0.4-0.9h0c-0.2,0.3-0.3,0.6-0.4,0.9c-0.6-0.1-1.2-0.2-1.8-0.2
		c0.1-0.3,0.2-0.6,0.3-1h0c-0.1,0.3-0.2,0.7-0.3,1c-0.6-0.1-1.3-0.1-1.9-0.2c0.1-0.3,0.2-0.7,0.3-1h0c-0.1,0.4-0.2,0.7-0.3,1
		c-0.7,0-1.4-0.1-2.1-0.1c0-0.3,0.1-0.7,0.2-1.1h0c-0.1,0.4-0.1,0.8-0.2,1.1c-0.1,0-0.2,0-0.4,0c-0.2,0-0.3,0-0.4,0
		c-0.4,0-0.8,0-1.2,0c0-0.4,0-0.8,0.1-1.2h0c0,0.4-0.1,0.8-0.1,1.2c-0.6,0-1.3,0.1-1.9,0.1c0-0.4,0-0.8,0.1-1.2h0
		c0,0.4-0.1,0.8-0.1,1.2c-0.7,0.1-1.4,0.2-2,0.3c0-0.4,0-0.9,0.1-1.3h0c0,0.5-0.1,0.9-0.1,1.3c-0.7,0.1-1.4,0.3-2.1,0.4
		c0-0.5,0-0.9,0.1-1.4h0c0,0.5-0.1,1-0.1,1.4c-0.8,0.2-1.6,0.4-2.3,0.6c0-0.5,0.1-1,0.2-1.6h0c-0.1,0.6-0.1,1.1-0.2,1.6
		c-0.5,0.2-0.9,0.3-1.3,0.5c-0.4,0.2-0.8,0.3-1.2,0.5c0-0.6,0.1-1.3,0.1-2h0c-0.1,0.7-0.1,1.4-0.1,2c-0.9,0.4-1.7,0.9-2.6,1.4
		c0-0.7,0-1.5,0.2-2.4h0c-0.1,0.9-0.2,1.7-0.2,2.5c-0.9,0.5-1.7,1.1-2.5,1.8c-0.1-0.9-0.1-1.8,0-2.9h0c-0.1,1.1-0.1,2,0,2.9
		c-0.9,0.7-1.7,1.6-2.5,2.4c-0.1-1-0.1-2.2,0.1-3.5h0c-0.2,1.2-0.3,2.4-0.1,3.5c-0.7,0.8-1.3,1.6-1.9,2.5c-0.2-0.9-0.2-1.8-0.2-2.7
		h0c-0.1,1,0,1.9,0.2,2.7c-0.7,1.1-1.4,2.2-2,3.5c0,0,0,0,0,0c0.6-1.2,1.3-2.4,2-3.5c0.2,1,0.5,2,0.8,2.8c-0.6,1.2-1.2,2.4-1.6,3.7
		c0,0,0,0,0,0c0.5-1.3,1-2.6,1.6-3.7c0.3,0.6,0.5,1.2,0.8,1.6c0.2,0.3,0.4,0.6,0.5,0.9c-0.5,1.2-0.9,2.4-1.2,3.7l0,0
		c0.3-1.3,0.7-2.6,1.2-3.7c0.8,1.3,1.6,2.1,1.6,2.1h0v0c-0.1-0.1-0.8-0.9-1.6-2.1c0.5-1.1,1-2.2,1.6-3.2c0.7,1,1.3,1.5,1.3,1.5v0
		c0,0,0,0,0,0c0,0-0.6-0.5-1.3-1.5c0.6-0.9,1.2-1.8,1.9-2.6c0.5,1.1,1,1.7,1,1.7l0,0c0,0-0.5-0.6-1-1.7c0.6-0.7,1.3-1.4,2-2
		c0.5,1.2,1,1.7,1,1.7l0,0l0,0c0,0-0.5-0.5-1-1.7c0.7-0.6,1.5-1.2,2.3-1.7c0,0,0,0,0,0c0.3,1.2,0.8,1.7,0.8,1.8l0,0l0,0
		c0,0-0.4-0.5-0.8-1.8c0,0,0,0,0-0.1c0.3-0.2,0.5-0.3,0.8-0.5c0.5-0.3,1-0.6,1.6-0.8c0,0,0,0,0,0.1c0.3,1.2,0.6,1.8,0.6,1.8l0,0
		c0,0-0.4-0.6-0.6-1.8c0.7-0.3,1.5-0.6,2.2-0.9c0.2,1.3,0.5,1.8,0.5,1.8l0,0l0,0c0,0-0.3-0.5-0.5-1.8c0.7-0.3,1.4-0.5,2.2-0.6
		c0.2,1.1,0.4,1.7,0.4,1.7l0,0c0,0-0.2-0.6-0.4-1.7c0.7-0.2,1.3-0.3,2-0.5c0.2,1,0.4,1.5,0.4,1.5h0l0,0c0,0-0.2-0.5-0.4-1.5
		c0.6-0.1,1.3-0.2,1.9-0.3c0.1,0.7,0.3,1.2,0.4,1.4h0c-0.1-0.2-0.2-0.7-0.4-1.4c0.6-0.1,1.2-0.2,1.8-0.2c0.1,0.6,0.2,1.1,0.2,1.3h0
		c-0.1-0.2-0.2-0.6-0.2-1.3c0.6,0,1.2-0.1,1.8-0.1c0,0.5,0,0.9,0.1,1.2h0c0-0.3-0.1-0.7-0.1-1.2c0.6,0,1.2,0,1.7,0
		c0,0.4,0,0.8,0,1.1h0c0-0.3,0-0.6,0-1.1c0.6,0,1.1,0,1.6,0c-0.1,0.4-0.1,0.7-0.1,1h0c0-0.3,0.1-0.6,0.1-1c0.5,0,1,0,1.6,0.1
		c-0.1,0.3-0.2,0.6-0.3,0.8h0c0.1-0.2,0.2-0.5,0.3-0.8c0.5,0,1,0.1,1.4,0.1c-0.1,0.3-0.2,0.5-0.3,0.7c0,0,0,0,0,0
		c0.1-0.2,0.2-0.5,0.3-0.7c0,0,0.1,0,0.1,0c0.4,0,0.8,0.1,1.2,0.1c-0.2,0.2-0.3,0.5-0.5,0.6c0,0,0,0,0,0c0.1-0.2,0.3-0.4,0.5-0.6
		c0.5,0.1,1,0.1,1.4,0.2c-0.2,0.2-0.3,0.4-0.5,0.5c0,0,0,0,0,0c0.1-0.2,0.3-0.3,0.5-0.5c0.4,0.1,0.8,0.1,1.2,0.2
		c-0.2,0.2-0.3,0.3-0.5,0.5c0,0,0,0,0,0c0.2-0.1,0.3-0.3,0.5-0.5c0.4,0.1,0.8,0.2,1.2,0.2c-0.2,0.1-0.3,0.3-0.5,0.4c0,0,0,0,0,0
		c0.2-0.1,0.3-0.2,0.5-0.4c0.4,0.1,0.8,0.2,1.2,0.2c-0.2,0.1-0.3,0.2-0.5,0.3c0,0,0,0,0,0c0.2-0.1,0.3-0.2,0.5-0.3
		c0.3,0.1,0.7,0.2,1,0.2c-0.2,0.1-0.3,0.2-0.4,0.3c0,0,0,0,0,0c0.1-0.1,0.3-0.2,0.4-0.3c0.3,0.1,0.6,0.2,0.9,0.2
		c-0.1,0.1-0.3,0.2-0.4,0.2c0,0,0,0,0,0c0.1-0.1,0.2-0.2,0.4-0.2c0.3,0.1,0.6,0.2,0.9,0.2c-0.1,0.1-0.2,0.1-0.3,0.2c0,0,0,0,0,0
		c0.1-0.1,0.2-0.1,0.3-0.2c0.3,0.1,0.5,0.1,0.7,0.2c-0.1,0.1-0.2,0.1-0.3,0.2c0,0,0,0,0,0c0.1-0.1,0.2-0.1,0.3-0.2
		c0.3,0.1,0.6,0.2,0.7,0.2c0,0,0,0,0,0c-0.1,0-0.3-0.1-0.7-0.2c0.2-0.1,0.4-0.2,0.6-0.3c0.3,0.1,0.6,0.2,0.6,0.2c0,0,0,0,0,0
		c-0.1,0-0.3-0.1-0.6-0.2c0.2-0.1,0.3-0.1,0.5-0.2c0.3,0.1,0.5,0.2,0.6,0.2h0v0c0,0-0.2-0.1-0.6-0.2
		C48.1,132.2,48.3,132.1,48.5,132.1C48.5,132.1,48.5,132.1,48.5,132.1z M46.4,131.7c0.3,0.1,0.5,0.2,0.8,0.3
		c-0.2,0.1-0.3,0.2-0.5,0.2c-0.3-0.1-0.5-0.2-0.8-0.3C46,131.9,46.2,131.8,46.4,131.7z M45.5,131.4c0.3,0.1,0.6,0.2,0.8,0.3
		c-0.2,0.1-0.4,0.2-0.6,0.3c-0.3-0.1-0.6-0.2-0.9-0.3C45.1,131.7,45.3,131.5,45.5,131.4z M44.6,131.1c0.3,0.1,0.6,0.2,0.9,0.3
		c-0.2,0.1-0.4,0.2-0.6,0.3c-0.3-0.1-0.6-0.2-1-0.3C44.1,131.3,44.3,131.2,44.6,131.1z M43.3,130.7c0.4,0.1,0.8,0.3,1.2,0.4
		c-0.3,0.1-0.5,0.2-0.7,0.3c-0.4-0.1-0.8-0.2-1.2-0.3C42.9,131,43.1,130.9,43.3,130.7z M42.1,130.4c0.4,0.1,0.8,0.2,1.3,0.4
		c-0.3,0.2-0.5,0.3-0.7,0.4c-0.4-0.1-0.8-0.2-1.3-0.3C41.6,130.7,41.8,130.5,42.1,130.4z M40.7,130c0.5,0.1,0.9,0.2,1.3,0.4
		c-0.3,0.2-0.5,0.3-0.7,0.5c-0.4-0.1-0.9-0.2-1.3-0.3C40.2,130.4,40.4,130.2,40.7,130z M39.1,129.6c0.5,0.1,1,0.2,1.5,0.4
		c-0.3,0.2-0.5,0.4-0.7,0.6c-0.5-0.1-1-0.2-1.5-0.3C38.7,130.1,38.9,129.8,39.1,129.6z M37.4,129.2c0.1,0,0.2,0,0.3,0.1
		c0.5,0.1,0.9,0.2,1.4,0.3c-0.3,0.2-0.5,0.5-0.7,0.7c-0.5-0.1-1-0.2-1.5-0.2C37,129.8,37.2,129.5,37.4,129.2z M35.8,128.9
		c0.5,0.1,1.1,0.2,1.6,0.3c-0.2,0.3-0.4,0.6-0.5,0.8c0,0-0.1,0-0.1,0c-0.5-0.1-1-0.1-1.4-0.2C35.5,129.5,35.6,129.2,35.8,128.9z
		 M34,128.6c0.6,0.1,1.2,0.2,1.8,0.3c-0.2,0.3-0.3,0.6-0.5,0.9c-0.6-0.1-1.1-0.1-1.7-0.2C33.7,129.3,33.8,129,34,128.6z M32.1,128.4
		c0.6,0.1,1.2,0.1,1.8,0.2c-0.1,0.4-0.2,0.7-0.3,1c-0.6,0-1.1-0.1-1.7-0.1C31.9,129.2,32,128.8,32.1,128.4z M30.2,128.3
		c0.6,0,1.3,0.1,1.9,0.2c-0.1,0.4-0.2,0.8-0.3,1.1c-0.6,0-1.2,0-1.8-0.1C30.1,129.1,30.1,128.7,30.2,128.3z M28.1,128.2
		c0.7,0,1.4,0,2.1,0.1c-0.1,0.4-0.2,0.8-0.2,1.2c-0.1,0-0.3,0-0.4,0c-0.5,0-1,0-1.5,0C28,129.1,28.1,128.7,28.1,128.2z M26,128.2
		c0.7,0,1.4,0,2,0c0,0.5-0.1,0.9-0.1,1.3c-0.6,0-1.3,0.1-1.9,0.1l0,0C26,129.2,26,128.8,26,128.2z M24.1,128.4
		c0.6-0.1,1.3-0.1,1.9-0.1c0,0.5,0,1,0,1.4c-0.6,0.1-1.3,0.1-1.9,0.2C24.1,129.4,24.1,128.9,24.1,128.4z M22.1,128.6
		c0.7-0.1,1.3-0.2,2-0.3c0,0.5,0,1,0,1.5c-0.7,0.1-1.4,0.2-2,0.3C22.1,129.7,22,129.2,22.1,128.6z M19.9,129.1
		c0.7-0.2,1.4-0.3,2.1-0.4c0,0.6,0,1.1,0,1.6c-0.7,0.2-1.4,0.3-2.1,0.5C19.9,130.2,19.9,129.7,19.9,129.1z M17.5,129.7
		c0.8-0.3,1.6-0.5,2.3-0.6c0,0.6,0,1.2,0,1.7c-0.8,0.2-1.6,0.5-2.3,0.8C17.5,131,17.5,130.4,17.5,129.7z M15,130.7
		c0.4-0.2,0.8-0.4,1.3-0.5c0.4-0.2,0.9-0.3,1.3-0.5c0,0.7,0,1.3,0,1.8c-0.8,0.3-1.6,0.7-2.3,1c-0.1,0-0.2,0.1-0.2,0.1
		C15,132.1,14.9,131.5,15,130.7z M14.9,130.7c0,0.8,0,1.4,0.1,2c-0.9,0.5-1.7,1-2.5,1.6c-0.1-0.6-0.2-1.4-0.2-2.2
		C13.2,131.6,14,131.2,14.9,130.7z M12.3,132.1c0,0.8,0.1,1.6,0.2,2.2c-0.8,0.6-1.5,1.2-2.2,1.9c-0.2-0.7-0.3-1.4-0.4-2.3
		C10.6,133.3,11.4,132.7,12.3,132.1z M9.8,134c0.1,0.9,0.2,1.6,0.4,2.3c-0.8,0.8-1.6,1.7-2.3,2.7c-0.3-0.7-0.5-1.6-0.7-2.5
		C8.1,135.5,8.9,134.7,9.8,134z M5.3,138.9c0.6-0.9,1.2-1.7,1.9-2.5c0,0.2,0.1,0.4,0.1,0.6c0.1,0.6,0.3,1.3,0.6,1.9
		c-0.6,0.9-1.2,1.8-1.7,2.8C5.8,140.9,5.5,139.9,5.3,138.9z M7.5,144.3c-0.2-0.3-0.4-0.6-0.5-0.9c-0.3-0.5-0.5-1-0.8-1.7
		c0.5-1,1.1-1.9,1.7-2.8c0.2,0.4,0.3,0.7,0.5,1.1c0.2,0.4,0.4,0.7,0.6,1C8.5,142.1,8,143.2,7.5,144.3z M9.1,141.1
		c-0.2-0.3-0.4-0.6-0.6-1c-0.2-0.3-0.4-0.7-0.5-1.1c0.7-1,1.5-1.8,2.3-2.6c0.2,0.6,0.3,1,0.5,1.4c0.1,0.3,0.2,0.5,0.3,0.7
		C10.3,139.3,9.7,140.1,9.1,141.1z M11,138.4c-0.1-0.2-0.2-0.5-0.3-0.7c-0.2-0.4-0.3-0.9-0.5-1.5c0.7-0.7,1.4-1.3,2.2-1.9
		c0.1,0.8,0.3,1.5,0.5,1.9c0,0,0,0.1,0,0.1C12.3,137.1,11.6,137.7,11,138.4z M13,136.4c0,0,0-0.1,0-0.1c-0.2-0.5-0.3-1.1-0.5-2
		c0.8-0.6,1.6-1.1,2.5-1.6c0.1,0.8,0.2,1.4,0.3,1.9C14.5,135.2,13.8,135.8,13,136.4z M16.2,134.2c-0.3,0.2-0.5,0.3-0.8,0.5
		c-0.1-0.5-0.3-1.1-0.3-1.9c0.1,0,0.2-0.1,0.2-0.1c0.7-0.4,1.5-0.7,2.3-1c0,0.7,0.1,1.3,0.2,1.7C17.2,133.6,16.7,133.9,16.2,134.2z
		 M17.8,133.3c-0.1-0.5-0.2-1.1-0.2-1.7c0.8-0.3,1.5-0.6,2.3-0.8c0,0.6,0.1,1.2,0.2,1.6C19.2,132.7,18.5,133,17.8,133.3z
		 M20.1,132.4c-0.1-0.4-0.1-1-0.2-1.6c0.7-0.2,1.4-0.4,2.1-0.5c0,0.6,0.1,1.1,0.2,1.5C21.5,131.9,20.8,132.2,20.1,132.4z
		 M22.2,131.7c-0.1-0.4-0.1-0.9-0.2-1.5c0.7-0.1,1.3-0.3,2-0.3c0,0.5,0.1,1,0.2,1.4C23.6,131.4,22.9,131.6,22.2,131.7z M24.3,131.3
		c-0.1-0.4-0.1-0.9-0.2-1.4c0.6-0.1,1.3-0.2,1.9-0.2c0,0.5,0.1,0.9,0.2,1.3C25.6,131,24.9,131.2,24.3,131.3z M26.3,131
		C26.3,131,26.3,131,26.3,131c-0.2-0.3-0.2-0.8-0.3-1.3c0.6-0.1,1.3-0.1,1.9-0.1c0,0.5,0,0.9,0.1,1.2
		C27.5,130.8,26.9,130.9,26.3,131z M29.9,130.7c-0.6,0-1.2,0.1-1.8,0.1c0-0.3-0.1-0.8-0.1-1.2c0.6,0,1.3,0,1.9,0
		C29.9,129.9,29.9,130.3,29.9,130.7z M31.7,130.6c0,0-0.1,0-0.2,0c-0.5,0-1.1,0-1.6,0c0-0.3,0-0.7,0.1-1.1c0.6,0,1.2,0,1.8,0
		C31.8,130,31.7,130.3,31.7,130.6z M33.3,130.7c-0.6,0-1.1,0-1.6,0c0-0.3,0.1-0.7,0.2-1.1c0.6,0,1.2,0.1,1.7,0.1
		C33.5,130.1,33.4,130.4,33.3,130.7z M34.9,130.8c-0.5,0-1-0.1-1.6-0.1c0.1-0.3,0.1-0.6,0.2-1c0.6,0,1.1,0.1,1.7,0.2
		C35.2,130.2,35,130.5,34.9,130.8z M36.4,130.9c-0.5,0-1-0.1-1.4-0.1c0.1-0.3,0.2-0.6,0.4-0.9c0.5,0.1,1,0.1,1.4,0.2c0,0,0,0,0.1,0
		C36.7,130.4,36.5,130.6,36.4,130.9z M37.8,131c-0.4,0-0.8-0.1-1.2-0.1c0,0-0.1,0-0.1,0c0.1-0.3,0.3-0.5,0.5-0.8
		c0.5,0.1,1,0.2,1.5,0.2C38.1,130.5,37.9,130.8,37.8,131z M39.3,131.2c-0.5-0.1-1-0.1-1.4-0.2c0.2-0.2,0.4-0.5,0.6-0.7
		c0.5,0.1,1,0.2,1.5,0.3C39.7,130.8,39.4,131,39.3,131.2z M40.5,131.4c-0.4-0.1-0.8-0.1-1.3-0.2c0.2-0.2,0.4-0.4,0.6-0.6
		c0.5,0.1,0.9,0.2,1.3,0.3C41,131,40.8,131.2,40.5,131.4z M41.8,131.7c-0.4-0.1-0.8-0.2-1.2-0.2c0.2-0.2,0.5-0.4,0.7-0.6
		c0.4,0.1,0.8,0.2,1.3,0.3C42.3,131.3,42,131.5,41.8,131.7z M43.1,131.9c-0.4-0.1-0.8-0.2-1.2-0.2c0.2-0.2,0.5-0.3,0.7-0.5
		c0.4,0.1,0.8,0.2,1.2,0.3C43.5,131.6,43.3,131.8,43.1,131.9z M44.1,132.1c-0.3-0.1-0.6-0.2-1-0.2c0.2-0.1,0.5-0.3,0.7-0.4
		c0.3,0.1,0.6,0.2,1,0.3C44.6,131.9,44.3,132,44.1,132.1z M45.1,132.3c-0.3-0.1-0.6-0.1-0.9-0.2c0.2-0.1,0.4-0.2,0.6-0.4
		c0.3,0.1,0.6,0.2,0.9,0.3C45.5,132.1,45.3,132.2,45.1,132.3z M46,132.6c-0.3-0.1-0.6-0.2-0.9-0.2c0.2-0.1,0.4-0.2,0.6-0.3
		c0.3,0.1,0.6,0.2,0.8,0.3C46.4,132.4,46.2,132.5,46,132.6z M46.8,132.8c-0.2-0.1-0.4-0.1-0.7-0.2c0.2-0.1,0.3-0.2,0.5-0.3
		c0.3,0.1,0.5,0.2,0.7,0.2C47.2,132.6,47,132.7,46.8,132.8z M47.4,132.5c-0.2-0.1-0.5-0.2-0.7-0.2c0.2-0.1,0.3-0.2,0.5-0.2
		c0.3,0.1,0.5,0.2,0.7,0.3C47.7,132.4,47.6,132.4,47.4,132.5z"/>
	<path class="st9" d="M35.2,159.9c-0.1,0-0.1,0-0.2,0C18.6,158.6-1,147,6.2,133.2c0,0-1,0.9-1.5,2.2c-6,13.3,13.2,24.5,29.3,25.7
		c0.1,0,0.1,0,0.2,0l4.3,5.9c0,0,0.7-1.7,0.8-1.7L35.2,159.9z"/>
	<g>
		<path class="st9" d="M8.9,150.7c-0.1-0.5-0.1-1.1-0.1-1.6c-3.8-4-5.3-9.2-3.3-13.3c2.7-5.8,11.3-8.6,21.5-8.8
			c-11-0.2-20.3,3.3-23.1,9.4C1.7,141.1,3.8,146.4,8.9,150.7z"/>
	</g>
	
		<radialGradient id="SVGID_12_" cx="149.8475" cy="432.8255" r="14.6836" gradientTransform="matrix(-0.4411 0.8974 1.7312 0.8509 -662.4623 -349.2207)" gradientUnits="userSpaceOnUse">
		<stop  offset="0" style="stop-color:#51AEDA"/>
		<stop  offset="0.1993" style="stop-color:#4CABD9"/>
		<stop  offset="0.3942" style="stop-color:#3CA4D5"/>
		<stop  offset="0.5873" style="stop-color:#1599CE"/>
		<stop  offset="0.7794" style="stop-color:#008AC4"/>
		<stop  offset="0.9691" style="stop-color:#007AB9"/>
		<stop  offset="1" style="stop-color:#0077B7"/>
	</radialGradient>
	<path class="st26" d="M34.1,161c-0.1,0-0.1,0-0.2,0c-16.1-1.3-35.2-12.3-29.3-25.6c0.5-1,1.1-1.7,1.4-2l0,0c0,0-1.1,0.9-2.4,3.2
		l0,0c-4.2,6.7-13.3,27.8,30.5,34.8l4.2-4.2c0,0,0-0.1,0-0.2L34.1,161z"/>
</g>
</svg>
